<svg id="Arrière-plan" xmlns="http://www.w3.org/2000/svg" viewBox="0 0 43.93 26.21"><defs><style>.cls-1{fill:#042942;}.cls-2{fill:#fff;}</style></defs><title>btnConnexion</title><rect class="cls-1" width="43.93" height="26.21" rx="13.1" ry="13.1"/><path class="cls-2" d="M12.53,13.72l.52.13a1.71,1.71,0,0,1-.59,1,1.59,1.59,0,0,1-1,.34,1.87,1.87,0,0,1-1-.26,1.58,1.58,0,0,1-.61-.75,2.67,2.67,0,0,1-.21-1.06A2.28,2.28,0,0,1,9.81,12a1.54,1.54,0,0,1,.67-.69,1.92,1.92,0,0,1,.95-.24A1.53,1.53,0,0,1,13,12.25l-.52.12a1.22,1.22,0,0,0-.39-.63,1.1,1.1,0,0,0-.66-.2,1.34,1.34,0,0,0-.76.22,1.23,1.23,0,0,0-.43.59,2.53,2.53,0,0,0,0,1.63,1.06,1.06,0,0,0,.45.56,1.32,1.32,0,0,0,.67.18,1.11,1.11,0,0,0,.74-.25A1.31,1.31,0,0,0,12.53,13.72Z"/><path class="cls-2" d="M13.45,13.68a1.5,1.5,0,0,1,.44-1.18,1.35,1.35,0,0,1,.9-.31,1.27,1.27,0,0,1,1,.38,1.47,1.47,0,0,1,.38,1.07,1.87,1.87,0,0,1-.17.86,1.14,1.14,0,0,1-.48.49,1.37,1.37,0,0,1-.69.18,1.28,1.28,0,0,1-1-.39A1.54,1.54,0,0,1,13.45,13.68Zm.5,0a1.22,1.22,0,0,0,.24.82.8.8,0,0,0,1.2,0,1.28,1.28,0,0,0,.24-.84,1.18,1.18,0,0,0-.24-.8.8.8,0,0,0-1.2,0A1.2,1.2,0,0,0,14,13.68Z"/><path class="cls-2" d="M16.69,15.1V12.25h.44v.41a1,1,0,0,1,.91-.47,1.19,1.19,0,0,1,.47.09.73.73,0,0,1,.32.24.83.83,0,0,1,.15.36,2.51,2.51,0,0,1,0,.47V15.1h-.48V13.37a1.18,1.18,0,0,0-.06-.44.47.47,0,0,0-.2-.24.64.64,0,0,0-.34-.09.79.79,0,0,0-.53.2,1,1,0,0,0-.22.74V15.1Z"/><path class="cls-2" d="M19.75,15.1V12.25h.44v.41a1,1,0,0,1,.9-.47,1.24,1.24,0,0,1,.48.09.73.73,0,0,1,.32.24,1,1,0,0,1,.15.36,2.51,2.51,0,0,1,0,.47V15.1h-.48V13.37a1.18,1.18,0,0,0-.06-.44.52.52,0,0,0-.2-.24A.64.64,0,0,0,21,12.6a.79.79,0,0,0-.53.2,1,1,0,0,0-.23.74V15.1Z"/><path class="cls-2" d="M24.76,14.18l.5.07a1.23,1.23,0,0,1-.44.68,1.3,1.3,0,0,1-.81.24,1.28,1.28,0,0,1-1-.39,1.49,1.49,0,0,1-.37-1.08A1.58,1.58,0,0,1,23,12.58a1.27,1.27,0,0,1,1-.39,1.24,1.24,0,0,1,.94.39,1.52,1.52,0,0,1,.36,1.09v.13H23.15a1.12,1.12,0,0,0,.26.72.79.79,0,0,0,.6.25.73.73,0,0,0,.45-.14A.85.85,0,0,0,24.76,14.18Zm-1.59-.78h1.6a.89.89,0,0,0-.19-.54.74.74,0,0,0-.59-.28.75.75,0,0,0-.56.23A.85.85,0,0,0,23.17,13.4Z"/><path class="cls-2" d="M25.55,15.1l1-1.48-1-1.37h.61l.44.67.2.32c.07-.12.15-.22.21-.32l.48-.67h.58l-1,1.34,1.07,1.51h-.6L27,14.22,26.88,14l-.75,1.12Z"/><path class="cls-2" d="M28.62,11.72v-.55h.48v.55Zm0,3.38V12.25h.48V15.1Z"/><path class="cls-2" d="M29.66,13.68a1.5,1.5,0,0,1,.44-1.18,1.35,1.35,0,0,1,.9-.31,1.27,1.27,0,0,1,1,.38,1.47,1.47,0,0,1,.37,1.07,1.88,1.88,0,0,1-.16.86,1.14,1.14,0,0,1-.48.49,1.37,1.37,0,0,1-.69.18,1.28,1.28,0,0,1-1-.39A1.49,1.49,0,0,1,29.66,13.68Zm.5,0a1.22,1.22,0,0,0,.24.82.8.8,0,0,0,1.2,0,1.28,1.28,0,0,0,.24-.84,1.18,1.18,0,0,0-.24-.8.8.8,0,0,0-1.2,0A1.2,1.2,0,0,0,30.16,13.68Z"/><path class="cls-2" d="M32.9,15.1V12.25h.43v.41a1,1,0,0,1,.91-.47,1.28,1.28,0,0,1,.48.09.73.73,0,0,1,.32.24,1,1,0,0,1,.15.36,2.51,2.51,0,0,1,0,.47V15.1h-.49V13.37a1.51,1.51,0,0,0,0-.44.52.52,0,0,0-.2-.24.64.64,0,0,0-.34-.09.78.78,0,0,0-.53.2,1,1,0,0,0-.23.74V15.1Z"/></svg>