<svg id="Calque_1" data-name="Calque 1" xmlns="http://www.w3.org/2000/svg" viewBox="0 0 179 323.5"><defs><style>.cls-1,.cls-11{fill:#042942;}.cls-11,.cls-2{font-size:5.5px;font-family:ArialMT, Arial;}.cls-2,.cls-7{fill:#fff;}.cls-3,.cls-8{fill:#fecd1a;}.cls-3{font-family:Arial-BoldMT, Arial;font-weight:700;}.cls-4{letter-spacing:0em;}.cls-5{text-decoration:underline;}.cls-6{letter-spacing:-0.02em;}.cls-9{fill:#f2f1ef;stroke:#fff;stroke-miterlimit:10;stroke-width:0.5px;}.cls-10{fill:#e53357;}</style></defs><title>connection</title><rect class="cls-1" x="-72.25" y="72.25" width="323.5" height="179" transform="translate(251.25 72.25) rotate(90)"/><text class="cls-2" transform="translate(141.46 19.9)">Connexion</text><text class="cls-2" transform="translate(20.96 279.59)">En appuyant sur <tspan class="cls-3" x="41.58" y="0">Continuer</tspan><tspan x="67.55" y="0">, </tspan><tspan class="cls-3" x="70.61" y="0">Créer un compte </tspan><tspan class="cls-4" x="115.84" y="0">j’accepte </tspan><tspan x="9.51" y="9.6">les </tspan><tspan class="cls-5" x="18.07" y="9.6">conditions d’utilisation</tspan><tspan x="71.58" y="9.6" xml:space="preserve"> de la plateforme Di</tspan><tspan class="cls-6" x="119.27" y="9.6">f</tspan><tspan x="120.7" y="9.6">fuz.</tspan></text><rect class="cls-7" x="109.76" y="64.93" width="7.01" height="9.79"/><path class="cls-8" d="M113.45,62.39a8,8,0,0,0-7.94,7.94c0,1.25.82,3.37.82,5.09a8.81,8.81,0,0,1-.82,3.67h6.92c4.39,0,9-4.37,9-8.76A8,8,0,0,0,113.45,62.39Zm.41,11.2s-2.44-2.32-2.44-3.66a2.44,2.44,0,1,1,4.88,0C116.3,71.27,113.86,73.59,113.86,73.59Z"/><path class="cls-7" d="M67.8,73.74a6.33,6.33,0,0,1,0,7.55,4.79,4.79,0,0,1-3.64,1.32H59.49V72.42h4.67A4.79,4.79,0,0,1,67.8,73.74Zm-2.45,5.9a5.14,5.14,0,0,0,0-4.25,1.76,1.76,0,0,0-1.57-.67H62.64v5.59h1.14A1.79,1.79,0,0,0,65.35,79.64Z"/><path class="cls-7" d="M70.57,73.89a1.27,1.27,0,0,1-.4-1,1.29,1.29,0,0,1,.4-1.07,3,3,0,0,1,2.68,0,1.29,1.29,0,0,1,.4,1.07,1.27,1.27,0,0,1-.4,1,3,3,0,0,1-2.68,0Zm2.9,8.72H70.35V74.89h3.12Z"/><path class="cls-7" d="M78.41,74.89h2.25V77h-2v5.57H75.49V77H74.35V74.89h1.14V74.4a2.62,2.62,0,0,1,.94-2.23,3.82,3.82,0,0,1,2.39-.72,5,5,0,0,1,1.15.12,1.89,1.89,0,0,1,.78.36l-.25,1.86a1.4,1.4,0,0,0-.88-.24,1.47,1.47,0,0,0-.91.24.94.94,0,0,0-.3.78Z"/><path class="cls-7" d="M84.45,74.89h2.26V77H84.65v5.57H81.54V77H80.4V74.89h1.14V74.4a2.62,2.62,0,0,1,.94-2.23,3.82,3.82,0,0,1,2.39-.72,5,5,0,0,1,1.15.12,2,2,0,0,1,.78.36l-.25,1.86a1.4,1.4,0,0,0-.88-.24,1.47,1.47,0,0,0-.91.24.94.94,0,0,0-.31.78Z"/><path class="cls-7" d="M95.61,74.89v7.72H92.8l-.07-1.53a2.62,2.62,0,0,1-2.64,1.68c-1.71,0-2.56-.89-2.56-2.68V74.89h3.11V79.3a1.57,1.57,0,0,0,.19.88.72.72,0,0,0,.61.25.92.92,0,0,0,.78-.37A1.89,1.89,0,0,0,92.49,79V74.89Z"/><path class="cls-7" d="M96.81,80.77l2.7-3,.78-.76-1.18,0h-2.3V74.89h6.93v1.84l-2.68,3-.79.78,1.31,0h2.3v2.12H96.81Z"/><rect class="cls-9" x="38.82" y="101.15" width="102.64" height="26.21" rx="13.1" ry="13.1"/><circle class="cls-10" cx="127.7" cy="114.25" r="9.92"/><path class="cls-7" d="M127.79,113.6v1.57h2.58a2.46,2.46,0,0,1-2.58,2,2.88,2.88,0,0,1,0-5.75,2.58,2.58,0,0,1,1.81.7l1.24-1.19a4.38,4.38,0,0,0-3-1.19,4.56,4.56,0,1,0,0,9.11,4.43,4.43,0,0,0,4.3-5.21Z"/><text class="cls-11" transform="translate(48.89 116.39)">Continuez avec Google</text><rect class="cls-9" x="38.82" y="133.05" width="102.64" height="26.21" rx="13.1" ry="13.1"/><circle class="cls-10" cx="127.7" cy="146.15" r="9.92"/><path class="cls-7" d="M128.56,142.16h1.73v-2.07h-1.73a2.41,2.41,0,0,0-2.41,2.41v1h-1.38v2.07h1.38v5.52h2.07v-5.52h1.72l.35-2.07h-2.07v-1A.35.35,0,0,1,128.56,142.16Z"/><text class="cls-11" transform="translate(48.89 148.28)">Continuez avec Facebook</text><rect class="cls-9" x="38.82" y="164.94" width="102.64" height="26.21" rx="13.1" ry="13.1"/><circle class="cls-10" cx="127.7" cy="178.04" r="9.92"/><text class="cls-11" transform="translate(48.89 180.18)">Continuez avec Instagram</text><text class="cls-2" transform="translate(19.35 270.51)"> </text><path class="cls-7" d="M130.58,174.68h-6.15a.7.7,0,0,0-.7.71v6.14a.7.7,0,0,0,.7.71h6.15a.71.71,0,0,0,.71-.71v-6.14A.71.71,0,0,0,130.58,174.68Zm-1.66,1.18a.23.23,0,0,1,.24-.23h1a.23.23,0,0,1,.23.23v.95a.23.23,0,0,1-.23.23h-1a.23.23,0,0,1-.24-.23ZM127.51,177a1.42,1.42,0,1,1-1.42,1.42A1.42,1.42,0,0,1,127.51,177Zm2.83,4h0a.23.23,0,0,1-.23.24h-5.2a.24.24,0,0,1-.24-.24h0V178h.52a2.42,2.42,0,0,0,0,.47,2.37,2.37,0,0,0,4.73,0,2.42,2.42,0,0,0-.05-.47h.52Z"/><rect class="cls-9" x="38.82" y="213.22" width="102.64" height="26.21" rx="13.1" ry="13.1"/><circle class="cls-1" cx="127.7" cy="226.32" r="9.92"/><text class="cls-11" transform="translate(48.89 228.46)">Créer un compte</text><path class="cls-7" d="M127.1,226.41l1.27-.63,4.44-4.45-.64-.63-4.44,4.44Zm-.94,2.25a2.42,2.42,0,0,0-1.32-1.31l1-2.71,1.27-.77,3.8-3.81H129l-3.81,3.81-1.9,6.35,6.35-1.9,3.8-3.81V222.6l-3.8,3.81-.78,1.27Z"/></svg>