<?xml version="1.0" encoding="utf-8"?>
<!-- Generator: Adobe Illustrator 22.0.1, SVG Export Plug-In . SVG Version: 6.00 Build 0)  -->
<svg version="1.1" id="Calque_1" xmlns="http://www.w3.org/2000/svg" xmlns:xlink="http://www.w3.org/1999/xlink" x="0px" y="0px"
	 viewBox="0 0 179 323.5" style="enable-background:new 0 0 179 323.5;" xml:space="preserve">
<style type="text/css">
	.st0{fill:#042942;}
	.st1{fill:url(#SVGID_1_);}
	.st2{fill:url(#SVGID_2_);}
	.st3{fill:url(#SVGID_3_);}
	.st4{fill:none;}
	.st5{fill:#E53357;}
	.st6{fill:#F5F5F5;}
	.st7{font-family:'WorkSans-Bold';}
	.st8{font-size:8.7764px;}
	.st9{fill:#FECD1A;}
	.st10{font-size:17.5529px;}
	.st11{fill:#FFFFFF;}
	.st12{font-family:'WorkSans-Regular';}
	.st13{font-size:7.3686px;}
	.st14{fill:#042942;stroke:#FFFFFF;stroke-miterlimit:10;}
</style>
<polyline class="st0" points="-1.5,-2.7 183.5,-2.7 183.5,326.2 -1.5,326.2 "/>
<g>
	<linearGradient id="SVGID_1_" gradientUnits="userSpaceOnUse" x1="90.0784" y1="71.2307" x2="141.1324" y2="217.707">
		<stop  offset="0" style="stop-color:#042942"/>
		<stop  offset="9.713113e-02" style="stop-color:#032339;stop-opacity:0.9099"/>
		<stop  offset="0.467" style="stop-color:#02101A;stop-opacity:0.5667"/>
		<stop  offset="0.7811" style="stop-color:#000407;stop-opacity:0.2752"/>
		<stop  offset="1" style="stop-color:#000000;stop-opacity:7.203642e-02"/>
	</linearGradient>
	<path class="st1" d="M148,102c-1.7-0.8-3.6-1.3-5.6-1.3h-2.8h-5.1h-17.1H117H99.9h-5.1H92c-2,0-3.9,0.5-5.6,1.3
		c-9.4,4.4-13.9,14.2-13.9,21.3V166c0,4.7,3.8,8.4,8.4,8.4c4.7,0,8.4-3.8,8.4-8.4v-32.7c0.2-1.5,0.9-2.4,2.6-2.4
		c3.6,0,2.5,4.1,2.5,13.6c0,0.3,0,0.6,0,0.9c0,0.2,0,0.5,0,0.7v93.6c0,5.6,4.6,10.2,10.2,10.2c0,0,0.1,0,0.1,0c0,0,0.1,0,0.1,0
		c5.6,0,10.2-4.6,10.2-10.2v-62c0-1.9,1-2.9,2.1-2.9c1.1,0.1,2.1,1,2.1,2.9v62c0,5.6,4.6,10.2,10.2,10.2c0,0,0.1,0,0.1,0
		c0,0,0.1,0,0.1,0c5.6,0,10.2-4.6,10.2-10.2v-93.6c0-0.3,0-0.5,0-0.7c0-0.3,0-0.6,0-0.9c0-9.5-1.1-13.6,2.5-13.6
		c1.7,0,2.4,0.9,2.6,2.4V166c0,4.7,3.8,8.4,8.4,8.4h0c4.7,0,8.4-3.8,8.4-8.4v-42.7C161.9,116.2,157.4,106.4,148,102z"/>
	<linearGradient id="SVGID_2_" gradientUnits="userSpaceOnUse" x1="114.5949" y1="62.6855" x2="165.6489" y2="209.1618">
		<stop  offset="0" style="stop-color:#042942"/>
		<stop  offset="9.713113e-02" style="stop-color:#032339;stop-opacity:0.9099"/>
		<stop  offset="0.467" style="stop-color:#02101A;stop-opacity:0.5667"/>
		<stop  offset="0.7811" style="stop-color:#000407;stop-opacity:0.2752"/>
		<stop  offset="1" style="stop-color:#000000;stop-opacity:7.203642e-02"/>
	</linearGradient>
	<path class="st2" d="M100.3,69.9c-1.1,2.4-1.7,5-1.7,7.8c0,10.5,8.5,19.1,19.1,19.1c10.5,0,19.1-8.5,19.1-19.1c0-0.4,0-0.7,0-1.1
		l0,0c4.4-5.9,0.5-15.6-4.6-19.3c-5.1-3.7-11.8-3.3-16.9-2c-5.1,1.3-8,0-7.8-2c0.3-2.1,3.1-3.1,3.1-3.1s-9.8-4.2-14.6,5.1
		C92.2,62.7,97.9,68.1,100.3,69.9z"/>
	<linearGradient id="SVGID_3_" gradientUnits="userSpaceOnUse" x1="22.0092" y1="94.956" x2="73.0632" y2="241.4324">
		<stop  offset="0" style="stop-color:#042942"/>
		<stop  offset="9.713113e-02" style="stop-color:#032339;stop-opacity:0.9099"/>
		<stop  offset="0.467" style="stop-color:#02101A;stop-opacity:0.5667"/>
		<stop  offset="0.7811" style="stop-color:#000407;stop-opacity:0.2752"/>
		<stop  offset="1" style="stop-color:#000000;stop-opacity:7.203642e-02"/>
	</linearGradient>
	<path class="st3" d="M69,166v-42.7c0-7.3,3.9-16.9,12.5-22.5c-7.6,2.8-17.3,8.7-19.8,20.8c-4.3,20.7-9.3,58.2-21.8,78.9
		s-25.3,32.8-27.1,32.8c0,0,7.1,0.9,14.3,5.1c7.1,4.2,10.4,10,20.7,8.9c10.4-1.1,25-6.8,32.1-4.3c7.1,2.5,8.9,4.5,8.9,4.5l0.3-72.9
		c-2.1,2.1-5,3.3-8.2,3.3C74.3,177.9,69,172.6,69,166z"/>
</g>
<title>connection</title>
<path class="st4" d="M61.6,170.5l-20.6,12.6c-0.3,0.8-0.6,1.7-0.9,2.5l22-13.5C62,171.5,61.8,171,61.6,170.5z"/>
<path class="st4" d="M81.2,186.2l-67.8,41.6c-2.3,2.4-4.2,4.3-5.7,5.4l73.4-45.1L81.2,186.2z"/>
<path class="st4" d="M81.2,183.7l-63,38.7c-1.2,1.5-2.4,2.9-3.5,4.1l66.5-40.8L81.2,183.7z"/>
<path class="st4" d="M81.2,188.7L7.5,234c0.6,0.1,1.4,0.3,2.2,0.6l71.4-43.9L81.2,188.7z"/>
<path class="st4" d="M81.1,193.8L13,235.6c0.6,0.2,1.3,0.5,1.9,0.8l66.2-40.6L81.1,193.8z"/>
<path class="st4" d="M81.2,191.3l-70.8,43.5c0.7,0.2,1.3,0.4,2.1,0.7l68.7-42.2L81.2,191.3z"/>
<path class="st4" d="M81.2,181.2l-59.1,36.3c-1,1.3-2,2.6-2.9,3.7l62-38.1L81.2,181.2z"/>
<path class="st4" d="M81.2,178.6l-55.7,34.2c-0.9,1.2-1.7,2.4-2.5,3.5l58.3-35.8L81.2,178.6z"/>
<path class="st4" d="M61.1,148.1L48.3,156c-0.2,0.7-0.3,1.5-0.5,2.2l13.3-8.2V148.1z"/>
<path class="st4" d="M81.1,196.3l-65.6,40.3c0.6,0.3,1.2,0.5,1.8,0.8l63.8-39.2L81.1,196.3z"/>
<path class="st4" d="M81.1,203.9l-59,36.2c0.5,0.3,1,0.7,1.5,1l57.6-35.3L81.1,203.9z"/>
<path class="st4" d="M81.1,206.5l-57.1,35.1c0.4,0.3,0.8,0.6,1.2,0.9c0.1,0.1,0.2,0.1,0.2,0.2l55.7-34.2L81.1,206.5z"/>
<path class="st4" d="M61.1,143l-11.6,7.1c-0.1,0.7-0.3,1.5-0.4,2.2l12.1-7.4V143z"/>
<path class="st4" d="M81.1,211.5l-53.4,32.8c0.5,0.4,1,0.7,1.5,1l51.9-31.8L81.1,211.5z"/>
<path class="st4" d="M81.2,176.5c-1.2,1-2.7,1.7-4.2,2.2l-48.6,29.8c-0.8,1.1-1.5,2.3-2.3,3.3l55-33.8L81.2,176.5z"/>
<path class="st4" d="M61.1,145.6l-12.2,7.5c-0.2,0.7-0.3,1.5-0.5,2.2l12.7-7.8V145.6z"/>
<path class="st4" d="M81.1,198.9l-63.2,38.8c0.6,0.3,1.1,0.6,1.7,0.9l61.6-37.8L81.1,198.9z"/>
<path class="st4" d="M81.1,209l-55.3,33.9c0.5,0.4,1,0.7,1.4,1.1l53.8-33.1L81.1,209z"/>
<path class="st4" d="M61.1,166.8v-1l-18,11.1c-0.2,0.8-0.5,1.6-0.7,2.4l18.8-11.5C61.1,167.4,61.1,167.1,61.1,166.8z"/>
<path class="st4" d="M61.2,168.2l-19.1,11.7c-0.3,0.8-0.5,1.6-0.8,2.4l20.2-12.4C61.4,169.4,61.2,168.8,61.2,168.2z"/>
<path class="st4" d="M61.1,155.7l-14.8,9.1c-0.2,0.8-0.4,1.5-0.6,2.3l15.4-9.4V155.7z"/>
<path class="st4" d="M61.1,163.2l-17.1,10.5c-0.2,0.8-0.4,1.6-0.7,2.3l17.8-10.9V163.2z"/>
<path class="st4" d="M61.1,158.2l-15.5,9.5c-0.2,0.8-0.4,1.5-0.6,2.3l16.1-9.9V158.2z"/>
<path class="st4" d="M61.1,160.7l-16.3,10c-0.2,0.8-0.4,1.6-0.6,2.3l16.9-10.4V160.7z"/>
<path class="st4" d="M61.1,153.1L47,161.8c-0.2,0.8-0.3,1.5-0.5,2.3l14.6-9V153.1z"/>
<path class="st4" d="M69.2,178.4l-35.6,21.8c-0.2,0.4-0.5,0.9-0.7,1.3c-0.4,0.6-0.7,1.2-1.1,1.8L71.4,179
	C70.7,178.9,69.9,178.7,69.2,178.4z"/>
<path class="st4" d="M61.1,150.6l-13.5,8.3c-0.2,0.7-0.3,1.5-0.5,2.2l14-8.6V150.6z"/>
<path class="st4" d="M62.5,172.5L40,186.3c-0.3,0.8-0.6,1.7-0.9,2.5l24.3-14.9C63,173.4,62.7,173,62.5,172.5z"/>
<path class="st4" d="M73.5,179.2c-0.4,0-0.9,0-1.3-0.1l-41,25.2c-0.7,1.1-1.4,2.2-2.1,3.2L75.5,179
	C74.9,179.1,74.2,179.2,73.5,179.2z"/>
<path class="st4" d="M66.9,177.3l-31.3,19.2c-0.5,1-1,1.9-1.5,2.9l34.5-21.2C68,177.9,67.5,177.6,66.9,177.3z"/>
<path class="st4" d="M63.6,174.3l-24.9,15.3c-0.3,0.9-0.7,1.7-1.1,2.6l27.1-16.6C64.3,175.2,64,174.7,63.6,174.3z"/>
<path class="st4" d="M65.1,175.9L37.3,193c-0.4,0.9-0.8,1.8-1.2,2.7L66.5,177C66,176.7,65.5,176.3,65.1,175.9z"/>
<path class="st4" d="M81.1,201.4L20,238.9c0.5,0.3,1.1,0.6,1.6,1l59.5-36.5L81.1,201.4z"/>
<path class="st4" d="M61.4,120.1l-7.1,4.4c-0.1,0.7-0.3,1.5-0.4,2.2l7.3-4.5C61.2,121.5,61.3,120.8,61.4,120.1z"/>
<path class="st4" d="M63.3,113.9l-7.3,4.5c-0.3,0.8-0.6,1.6-0.8,2.4l7.2-4.4C62.6,115.6,62.9,114.8,63.3,113.9z"/>
<path class="st4" d="M62.1,117.2l-7.2,4.4c-0.1,0.3-0.2,0.6-0.2,0.9c-0.1,0.4-0.2,0.9-0.3,1.3l7.1-4.4
	C61.7,118.7,61.9,117.9,62.1,117.2z"/>
<path class="st4" d="M61.1,125.4l-7.8,4.8c-0.1,0.7-0.3,1.5-0.4,2.2l8.2-5.1V125.4z"/>
<path class="st4" d="M61.1,130.4l-8.9,5.5c-0.1,0.7-0.3,1.4-0.4,2.2l9.3-5.7V130.4z"/>
<path class="st4" d="M61.1,127.9l-8.4,5.1c-0.1,0.7-0.3,1.5-0.4,2.2l8.8-5.4V127.9z"/>
<path class="st4" d="M61.1,124.1c0-0.4,0-0.8,0-1.2l-7.3,4.5c-0.1,0.7-0.3,1.5-0.4,2.2l7.7-4.7V124.1z"/>
<path class="st4" d="M80.9,247.2l0-0.2l-0.2,0.1C80.8,247.1,80.8,247.1,80.9,247.2z"/>
<path class="st4" d="M70.7,103.5c-2.6,1.2-5.2,2.8-7.6,4.9l6.9-4.3C70.2,103.9,70.5,103.7,70.7,103.5z"/>
<path class="st4" d="M68.6,105.6l-7.2,4.4c-1.1,1.1-2.1,2.4-3.1,3.8l7.5-4.6C66.6,108,67.5,106.8,68.6,105.6z"/>
<path class="st4" d="M61.1,140.5L50,147.3c-0.1,0.7-0.3,1.5-0.4,2.2l11.5-7.1V140.5z"/>
<path class="st4" d="M65.1,110.3l-7.5,4.6c-0.5,0.9-1,1.8-1.4,2.8l7.4-4.5C64.1,112.2,64.6,111.2,65.1,110.3z"/>
<path class="st4" d="M81,221.7l-42.4,26.1c0.6,0,1.1-0.1,1.7-0.1c0.7-0.1,1.4-0.2,2.1-0.3L81,223.6L81,221.7z"/>
<path class="st4" d="M81,224.2l-37.3,22.9c1.5-0.3,3.1-0.6,4.7-0.9l32.6-20L81,224.2z"/>
<path class="st4" d="M81,219.1l-46.2,28.4c0.9,0.1,1.8,0.2,2.7,0.3L81,221.1L81,219.1z"/>
<path class="st4" d="M81,226.7l-31.1,19.1c0.8-0.2,1.7-0.4,2.5-0.6c0.9-0.2,1.7-0.4,2.6-0.6l26-16L81,226.7z"/>
<path class="st4" d="M81,229.2l-24.5,15c1.6-0.4,3.2-0.7,4.7-0.9L81,231.2L81,229.2z"/>
<path class="st4" d="M61.1,138l-10.5,6.4c-0.1,0.7-0.3,1.5-0.4,2.2l10.9-6.7V138z"/>
<path class="st4" d="M81,214.1l-51.4,31.5c0.6,0.3,1.1,0.6,1.7,0.9L81,216L81,214.1z"/>
<path class="st4" d="M81,216.6l-49,30.1c0.7,0.3,1.4,0.5,2.1,0.6L81,218.5L81,216.6z"/>
<path class="st4" d="M80.9,244.4l-2.3,1.4c0.7,0.3,1.2,0.7,1.6,0.9l0.6-0.4L80.9,244.4z"/>
<path class="st4" d="M80.9,241.9l-4.6,2.8c0.7,0.3,1.3,0.6,1.8,0.8l2.8-1.7L80.9,241.9z"/>
<path class="st4" d="M80.9,239.4l-7.1,4.3c0.7,0.3,1.3,0.5,1.9,0.8l5.1-3.2L80.9,239.4z"/>
<path class="st4" d="M61.1,132.9l-9.4,5.8c-0.1,0.7-0.3,1.5-0.4,2.2l9.8-6V132.9z"/>
<path class="st4" d="M80.9,236.8l-9.8,6c0.5,0.1,1.1,0.2,1.5,0.4c0.2,0.1,0.4,0.2,0.6,0.2l7.7-4.7L80.9,236.8z"/>
<path class="st4" d="M81,231.8l-18.5,11.4c1.3-0.2,2.6-0.4,3.9-0.4l14.6-9L81,231.8z"/>
<path class="st4" d="M61.1,135.5l-10,6.1c-0.1,0.7-0.3,1.5-0.4,2.2l10.4-6.4V135.5z"/>
<path class="st4" d="M81,234.3l-13.6,8.3c1,0,2,0,2.9,0.1l10.6-6.5L81,234.3z"/>
<path class="st5" d="M81.4,175c-2.1,2-4.8,3.1-7.6,3.2c-0.1,0-0.2,0-0.2,0c-0.2,0-0.5,0-0.7,0c-0.9-0.1-1.7-0.2-2.5-0.4
	c-0.2-0.1-0.4-0.1-0.6-0.2c-0.6-0.2-1.2-0.5-1.8-0.8c-0.2-0.1-0.3-0.2-0.5-0.3c-0.5-0.3-1-0.7-1.4-1.1c-0.1-0.1-0.3-0.2-0.4-0.4
	c-0.4-0.4-0.8-0.8-1.1-1.2c-0.1-0.1-0.2-0.3-0.3-0.4c-0.3-0.4-0.6-0.9-0.9-1.4c-0.1-0.1-0.1-0.3-0.2-0.5c-0.2-0.5-0.4-1-0.6-1.6
	c0-0.2-0.1-0.3-0.1-0.5c-0.1-0.6-0.2-1.2-0.3-1.8c0-0.2,0-0.4,0-0.6c0-0.1,0-0.2,0-0.3v-1.6v-0.6v-1.9V162v-1.9v-0.6v-1.9V157V155
	v-0.6v-1.9v-0.6V150v-0.6v-1.9v-0.6v-1.9v-0.6v-1.9v-0.6v-1.9v-0.6v-1.9v-0.6v-1.9v-0.6v-1.9v-0.6v-1.9v-0.6v-1.9v-0.6v-1.9v-0.6
	v-0.1c0-0.6,0-1.2,0.1-1.9c0-0.2,0-0.4,0.1-0.6c0.1-0.7,0.2-1.4,0.4-2.2c0-0.2,0.1-0.5,0.1-0.7c0.2-0.8,0.4-1.6,0.7-2.4
	c0.1-0.2,0.2-0.5,0.3-0.7c0.3-0.9,0.7-1.8,1.1-2.6c0.1-0.3,0.3-0.6,0.4-0.8c0.6-1.1,1.2-2.1,1.9-3.1c0.3-0.4,0.5-0.7,0.8-1.1
	c1.5-1.9,3.2-3.7,5.3-5.2c0.4-0.3,0.8-0.6,1.2-0.8l3.7-2.4l-1.3,0.5l-2.8,1c-4.8,1.8-10.3,4.7-14.5,9.6c-0.3,0.4-0.6,0.8-0.9,1.2
	c-0.8,1-1.5,2.1-2.1,3.2c-0.2,0.3-0.3,0.6-0.5,0.9c-0.4,0.8-0.8,1.7-1.1,2.6c-0.1,0.2-0.2,0.5-0.3,0.7c-0.2,0.8-0.5,1.5-0.7,2.3
	c-0.1,0.2-0.1,0.4-0.2,0.7c0,0,0,0,0,0c-0.1,0.7-0.3,1.5-0.4,2.2c0,0.2-0.1,0.4-0.1,0.7c-0.1,0.7-0.3,1.5-0.4,2.2
	c0,0.2-0.1,0.4-0.1,0.7c-0.1,0.7-0.3,1.4-0.4,2.2c0,0.2-0.1,0.4-0.1,0.7c-0.1,0.7-0.3,1.4-0.4,2.2c0,0.2-0.1,0.4-0.1,0.7
	c-0.1,0.5-0.2,1-0.3,1.5c0,0.2-0.1,0.5-0.1,0.7c0,0.2-0.1,0.4-0.1,0.7c-0.1,0.7-0.3,1.4-0.4,2.2c0,0.2-0.1,0.4-0.1,0.7
	c-0.1,0.7-0.3,1.5-0.4,2.2c0,0.2-0.1,0.4-0.1,0.7c-0.1,0.7-0.3,1.5-0.4,2.2c0,0.2-0.1,0.4-0.1,0.7c-0.1,0.7-0.3,1.5-0.4,2.2
	c0,0.2-0.1,0.4-0.1,0.7c-0.1,0.7-0.3,1.5-0.4,2.2c0,0.2-0.1,0.4-0.1,0.7c-0.1,0.7-0.3,1.5-0.5,2.2c0,0.2-0.1,0.4-0.1,0.7
	c-0.2,0.7-0.3,1.5-0.5,2.2c0,0.2-0.1,0.5-0.1,0.7c-0.2,0.7-0.3,1.5-0.5,2.2c-0.1,0.2-0.1,0.5-0.2,0.7c-0.2,0.8-0.3,1.5-0.5,2.3
	c-0.1,0.2-0.1,0.5-0.2,0.7c-0.2,0.8-0.4,1.5-0.5,2.3c-0.1,0.2-0.1,0.5-0.2,0.7c-0.2,0.8-0.4,1.5-0.6,2.3c-0.1,0.2-0.1,0.5-0.2,0.7
	c-0.2,0.8-0.4,1.5-0.6,2.3c-0.1,0.2-0.1,0.5-0.2,0.7c-0.2,0.8-0.4,1.6-0.6,2.3c-0.1,0.2-0.1,0.5-0.2,0.7c-0.2,0.8-0.5,1.6-0.7,2.4
	c-0.1,0.2-0.1,0.5-0.2,0.7c-0.2,0.8-0.5,1.6-0.7,2.4c-0.1,0.2-0.2,0.5-0.2,0.7c-0.3,0.8-0.5,1.6-0.8,2.4c-0.1,0.2-0.2,0.5-0.3,0.7
	c-0.3,0.8-0.6,1.7-0.9,2.5c-0.1,0.3-0.2,0.5-0.3,0.8c-0.3,0.9-0.7,1.7-1,2.5c-0.1,0.3-0.2,0.5-0.3,0.8c-0.4,0.9-0.8,1.8-1.1,2.6
	c-0.1,0.3-0.2,0.5-0.4,0.8c-0.4,0.9-0.9,1.9-1.3,2.8c-0.1,0.3-0.3,0.6-0.4,0.9c-0.5,1-1.1,2-1.6,2.9c-0.1,0.2-0.2,0.4-0.3,0.6
	c-0.1,0.1-0.2,0.2-0.2,0.4c-0.6,1.1-1.3,2.1-1.9,3.1c-0.2,0.3-0.4,0.6-0.6,1c-0.7,1.1-1.4,2.2-2.1,3.2c-0.2,0.3-0.5,0.7-0.7,1
	c-0.8,1.2-1.6,2.3-2.4,3.4c-0.3,0.4-0.5,0.7-0.8,1.1c-0.9,1.3-1.8,2.5-2.7,3.6c-0.3,0.4-0.6,0.8-0.9,1.1c-1.1,1.4-2.2,2.7-3.2,3.9
	c-0.4,0.4-0.7,0.8-1.1,1.2c-1.5,1.7-2.9,3.2-4.1,4.4c-0.5,0.6-1,1.1-1.5,1.5c-2.4,2.4-4.1,3.6-4.6,3.6l-0.1,1c0,0,0.1,0,0.2,0
	c0.2,0,0.4,0.1,0.7,0.1c0.6,0.1,1.3,0.3,2.3,0.5c0.2,0.1,0.4,0.1,0.7,0.2c0.7,0.2,1.4,0.4,2.1,0.6c0.2,0.1,0.4,0.1,0.6,0.2
	c0.6,0.2,1.3,0.5,2,0.7c0.2,0.1,0.4,0.2,0.6,0.2c0.6,0.2,1.2,0.5,1.8,0.8c0.2,0.1,0.4,0.2,0.5,0.3c0.6,0.3,1.1,0.6,1.7,0.9
	c0.2,0.1,0.3,0.2,0.5,0.3c0.1,0.1,0.2,0.1,0.3,0.2c0.4,0.3,0.9,0.5,1.3,0.8c0.2,0.1,0.3,0.2,0.5,0.3c0.5,0.3,1,0.7,1.5,1
	c0.1,0.1,0.3,0.2,0.4,0.3c0.5,0.4,1,0.7,1.4,1.1c0,0,0,0,0.1,0.1c0.1,0.1,0.2,0.2,0.4,0.3c0.5,0.4,0.9,0.7,1.4,1.1
	c0.1,0.1,0.3,0.2,0.4,0.3c0.5,0.4,1,0.7,1.5,1c0.2,0.1,0.3,0.2,0.5,0.3c0.5,0.3,1.1,0.6,1.7,0.9c0.2,0.1,0.4,0.2,0.5,0.3
	c0.6,0.3,1.3,0.5,2,0.7c0.2,0.1,0.4,0.1,0.7,0.2c0.8,0.2,1.6,0.3,2.5,0.4c0.3,0,0.6,0,0.9,0.1c1,0,2.1,0,3.3-0.1c0,0,0.1,0,0.1,0
	c0.4,0,0.7-0.1,1.1-0.1c1.4-0.2,2.9-0.4,4.4-0.7c0.5-0.1,1-0.2,1.4-0.3c1.7-0.4,3.3-0.7,5-1.1c0.1,0,0.2-0.1,0.4-0.1
	c0.4-0.1,0.8-0.2,1.2-0.3c1.7-0.4,3.3-0.8,4.9-1.1c0.5-0.1,0.9-0.2,1.4-0.3c1.5-0.3,2.9-0.5,4.3-0.7c0.4,0,0.8-0.1,1.2-0.1
	c1.2-0.1,2.3-0.1,3.3-0.1c0.3,0,0.6,0,0.9,0.1c0.9,0.1,1.7,0.2,2.4,0.5c0,0,0.1,0,0.1,0c0.2,0.1,0.3,0.1,0.5,0.2
	c0.7,0.3,1.4,0.5,2,0.7c0.2,0.1,0.4,0.2,0.6,0.2c0.7,0.3,1.3,0.6,1.8,0.8c0.2,0.1,0.4,0.2,0.5,0.3c0.7,0.3,1.2,0.6,1.7,0.9
	c0.2,0.1,0.3,0.2,0.5,0.3c0.9,0.6,1.2,0.9,1.2,0.9l0.2,0.2l0.3,0.4l0.4,0.4l0-0.6l0-0.6l0-1.9l0-0.6l0-1.9l0-0.6l0-1.9l0-0.6l0-1.9
	l0-0.6l0-1.9l0-0.6l0-1.9l0-0.6l0-1.9l0-0.6l0-1.9l0-0.6l0-1.9l0-0.6l0-1.9l0-0.6l0-1.9l0-0.6l0-1.9l0-0.6l0-1.9l0-0.6l0-1.9l0-0.6
	l0-1.9l0-0.6l0-1.9l0-0.6l0-1.9l0-0.6l0-1.9l0-0.6l0-1.9l0-0.6l0-1.9l0-0.6l0-1.9l0-0.6l0-1.9l0-0.6l0-1.9l0-0.6l0-1.9l0-0.6l0-1.9
	l0-0.6l0-1.9l0-0.6l0-1.9l0-0.6l0-1.9l0-0.6l0-1.9l0-0.6l0-0.7L81.4,175z M70.7,103.5c-0.2,0.2-0.5,0.4-0.7,0.7l-6.9,4.3
	C65.5,106.3,68.1,104.7,70.7,103.5z M61.3,110.1l7.2-4.4c-1.1,1.2-2,2.4-2.8,3.7l-7.5,4.6C59.2,112.5,60.2,111.2,61.3,110.1z
	 M57.7,114.8l7.5-4.6c-0.6,0.9-1.1,1.9-1.5,2.9l-7.4,4.5C56.7,116.7,57.2,115.7,57.7,114.8z M55.9,118.4l7.3-4.5
	c-0.4,0.8-0.7,1.7-0.9,2.5l-7.2,4.4C55.4,120,55.6,119.2,55.9,118.4z M54.7,122.5c0.1-0.3,0.1-0.6,0.2-0.9l7.2-4.4
	c-0.2,0.8-0.4,1.5-0.6,2.3l-7.1,4.4C54.6,123.3,54.7,122.9,54.7,122.5z M54.3,124.5l7.1-4.4c-0.1,0.7-0.2,1.4-0.3,2.1l-7.3,4.5
	C54.1,125.9,54.2,125.2,54.3,124.5z M53.8,127.3l7.3-4.5c0,0.4,0,0.8,0,1.2v0.7l-7.7,4.7C53.5,128.8,53.6,128,53.8,127.3z
	 M53.2,130.2l7.8-4.8v1.9l-8.2,5.1C53,131.6,53.1,130.9,53.2,130.2z M52.7,133l8.4-5.1v1.9l-8.8,5.4C52.4,134.5,52.6,133.8,52.7,133
	z M52.2,135.9l8.9-5.5v1.9l-9.3,5.7C51.9,137.3,52,136.6,52.2,135.9z M51.6,138.7l9.4-5.8v1.9l-9.8,6
	C51.4,140.2,51.5,139.5,51.6,138.7z M51.1,141.6l10-6.1v1.9l-10.4,6.4C50.8,143,51,142.3,51.1,141.6z M50.6,144.4l10.5-6.4v1.9
	l-10.9,6.7C50.3,145.9,50.4,145.2,50.6,144.4z M50,147.3l11.1-6.8v1.9l-11.5,7.1C49.7,148.8,49.9,148,50,147.3z M49.4,150.2
	l11.6-7.1v1.9L49,152.4C49.2,151.6,49.3,150.9,49.4,150.2z M48.9,153.1l12.2-7.5v1.9l-12.7,7.8C48.6,154.5,48.7,153.8,48.9,153.1z
	 M48.3,156l12.8-7.9v1.9l-13.3,8.2C47.9,157.4,48.1,156.7,48.3,156z M47.6,158.9l13.5-8.3v1.9l-14,8.6
	C47.3,160.4,47.5,159.6,47.6,158.9z M47,161.8l14.1-8.7v1.9l-14.6,9C46.6,163.3,46.8,162.6,47,161.8z M46.3,164.7l14.8-9.1v1.9
	L45.7,167C45.9,166.3,46.1,165.5,46.3,164.7z M45.5,167.7l15.5-9.5v1.9L44.9,170C45.1,169.3,45.3,168.5,45.5,167.7z M44.8,170.7
	l16.3-10v1.9L44.1,173C44.3,172.3,44.6,171.5,44.8,170.7z M43.9,173.7l17.1-10.5v1.9l-17.8,10.9C43.5,175.3,43.7,174.5,43.9,173.7z
	 M43.1,176.8l18-11.1v1c0,0.3,0,0.6,0,0.9l-18.8,11.5C42.6,178.4,42.8,177.6,43.1,176.8z M42.1,179.9l19.1-11.7
	c0.1,0.6,0.2,1.2,0.3,1.7l-20.2,12.4C41.6,181.5,41.9,180.7,42.1,179.9z M41.1,183.1l20.6-12.6c0.2,0.5,0.4,1.1,0.6,1.6l-22,13.5
	C40.5,184.7,40.8,183.9,41.1,183.1z M40,186.3l22.5-13.8c0.3,0.5,0.5,1,0.9,1.4L39,188.8C39.3,188,39.6,187.1,40,186.3z M38.7,189.6
	l24.9-15.3c0.3,0.4,0.7,0.9,1.1,1.3l-27.1,16.6C38,191.3,38.3,190.5,38.7,189.6z M37.3,193l27.8-17.1c0.4,0.4,0.9,0.8,1.4,1.1
	L36,195.7C36.5,194.8,36.9,193.9,37.3,193z M35.6,196.5l31.3-19.2c0.5,0.3,1.1,0.6,1.7,0.9l-34.5,21.2
	C34.7,198.4,35.2,197.5,35.6,196.5z M32.9,201.5c0.2-0.4,0.5-0.8,0.7-1.3l35.6-21.8c0.7,0.3,1.4,0.5,2.2,0.6l-39.6,24.3
	C32.2,202.7,32.5,202.1,32.9,201.5z M80.9,247.2c0,0-0.1-0.1-0.2-0.1l0.2-0.1L80.9,247.2z M80.9,246.4l-0.6,0.4
	c-0.4-0.3-1-0.6-1.6-0.9l2.3-1.4L80.9,246.4z M80.9,243.8l-2.8,1.7c-0.5-0.3-1.1-0.5-1.8-0.8l4.6-2.8L80.9,243.8z M80.9,241.3
	l-5.1,3.2c-0.6-0.2-1.2-0.5-1.9-0.8l7.1-4.3L80.9,241.3z M80.9,238.8l-7.7,4.7c-0.2-0.1-0.4-0.1-0.6-0.2c-0.5-0.2-1-0.3-1.5-0.4
	l9.8-6L80.9,238.8z M80.9,236.3l-10.6,6.5c-0.9-0.1-1.9-0.2-2.9-0.1l13.6-8.3L80.9,236.3z M81,233.7l-14.6,9
	c-1.2,0.1-2.5,0.2-3.9,0.4L81,231.8L81,233.7z M81,231.2l-19.8,12.2c-1.5,0.3-3.1,0.6-4.7,0.9l24.5-15L81,231.2z M81,228.7l-26,16
	c-0.9,0.2-1.7,0.4-2.6,0.6c-0.8,0.2-1.7,0.4-2.5,0.6L81,226.7L81,228.7z M81,226.1l-32.6,20c-1.6,0.4-3.2,0.7-4.7,0.9L81,224.2
	L81,226.1z M81,223.6l-38.6,23.7c-0.7,0.1-1.4,0.2-2.1,0.3c-0.6,0.1-1.2,0.1-1.7,0.1L81,221.7L81,223.6z M81,221.1l-43.4,26.7
	c-1,0-1.9-0.1-2.7-0.3L81,219.1L81,221.1z M81,218.5l-46.9,28.8c-0.7-0.2-1.4-0.4-2.1-0.6l49-30.1L81,218.5z M81,216l-49.6,30.5
	c-0.6-0.3-1.2-0.6-1.7-0.9L81,214.1L81,216z M81.1,213.5l-51.9,31.8c-0.5-0.3-1-0.6-1.5-1l53.4-32.8L81.1,213.5z M81.1,210.9
	L27.2,244c-0.5-0.3-1-0.7-1.4-1.1L81.1,209L81.1,210.9z M81.1,208.4l-55.7,34.2c-0.1-0.1-0.2-0.1-0.2-0.2c-0.4-0.3-0.8-0.6-1.2-0.9
	l57.1-35.1L81.1,208.4z M81.1,205.9l-57.6,35.3c-0.5-0.3-1-0.7-1.5-1l59-36.2L81.1,205.9z M81.1,203.3l-59.5,36.5
	c-0.5-0.3-1-0.7-1.6-1l61.1-37.5L81.1,203.3z M81.1,200.8l-61.6,37.8c-0.6-0.3-1.1-0.6-1.7-0.9l63.2-38.8L81.1,200.8z M81.1,198.3
	l-63.8,39.2c-0.6-0.3-1.2-0.6-1.8-0.8l65.6-40.3L81.1,198.3z M81.1,195.8L15,236.4c-0.7-0.3-1.3-0.5-1.9-0.8l68.1-41.8L81.1,195.8z
	 M81.1,193.2l-68.7,42.2c-0.7-0.3-1.4-0.5-2.1-0.7l70.8-43.5L81.1,193.2z M81.2,190.7L9.7,234.6c-0.9-0.2-1.6-0.4-2.2-0.6l73.7-45.2
	L81.2,190.7z M81.2,188.2L7.8,233.2c1.4-1.1,3.4-3,5.7-5.4l67.8-41.6L81.2,188.2z M81.2,185.6l-66.5,40.8c1.1-1.2,2.3-2.6,3.5-4.1
	l63-38.7L81.2,185.6z M81.2,183.1l-62,38.1c0.9-1.2,1.9-2.4,2.9-3.7l59.1-36.3L81.2,183.1z M81.2,180.6l-58.3,35.8
	c0.8-1.1,1.7-2.3,2.5-3.5l55.7-34.2L81.2,180.6z M81.2,176.5l0,1.6l-55,33.8c0.8-1.1,1.5-2.2,2.3-3.3l48.6-29.8
	C78.6,178.2,80,177.5,81.2,176.5z M29.2,207.5c0.7-1,1.4-2.1,2.1-3.2l41-25.2c0.4,0,0.9,0.1,1.3,0.1c0.7,0,1.4-0.1,2-0.2L29.2,207.5
	z"/>
<text transform="matrix(1.0361 0 0 1 15.1941 43.5165)"><tspan x="0" y="0" class="st6 st7 st8">Nous avons </tspan><tspan x="0" y="8.8" class="st6 st7 st8">tous un  </tspan><tspan x="0" y="23.4" class="st9 st7 st10">super  </tspan><tspan x="0" y="38" class="st9 st7 st10">pouvoir,</tspan><tspan x="0" y="49.7" class="st6 st7 st8">celui d’agir</tspan></text>
<text transform="matrix(1.0361 0 0 1 27.1672 19.3973)" class="st11 st12 st13">Petites actions pour grands défis</text>
<g>
	<path class="st14" d="M140.6,102c-1.7-0.8-3.6-1.3-5.6-1.3h-2.8h-5.1H110h-0.4H92.5h-5.1h-2.8c-2,0-3.9,0.5-5.6,1.3
		c-9.4,4.4-13.9,14.2-13.9,21.3V166c0,4.7,3.8,8.4,8.4,8.4h0c4.7,0,8.4-3.8,8.4-8.4v-32.7c0.2-1.5,0.9-2.4,2.6-2.4
		c3.6,0,2.5,4.1,2.5,13.6c0,0.3,0,0.6,0,0.9c0,0.2,0,0.5,0,0.7v93.6c0,5.6,4.6,10.2,10.2,10.2c0,0,0.1,0,0.1,0c0,0,0.1,0,0.1,0h0
		c5.6,0,10.2-4.6,10.2-10.2v-62c0-1.9,1-2.9,2.1-2.9c1.1,0.1,2.1,1,2.1,2.9v62c0,5.6,4.6,10.2,10.2,10.2h0c0,0,0.1,0,0.1,0
		c0,0,0.1,0,0.1,0c5.6,0,10.2-4.6,10.2-10.2v-93.6c0-0.3,0-0.5,0-0.7c0-0.3,0-0.6,0-0.9c0-9.5-1.1-13.6,2.5-13.6
		c1.7,0,2.4,0.9,2.6,2.4V166c0,4.7,3.8,8.4,8.4,8.4h0c4.7,0,8.4-3.8,8.4-8.4v-42.7C154.6,116.2,150,106.4,140.6,102z"/>
	<path class="st14" d="M92.9,69.9c-1.1,2.4-1.7,5-1.7,7.8c0,10.5,8.5,19.1,19.1,19.1c10.5,0,19.1-8.5,19.1-19.1c0-0.4,0-0.7,0-1.1
		l0,0c4.4-5.9,0.5-15.6-4.6-19.3c-5.1-3.7-11.8-3.3-16.9-2c-5.1,1.3-8,0-7.8-2c0.3-2.1,3.1-3.1,3.1-3.1s-9.8-4.2-14.6,5.1
		C84.8,62.7,90.5,68.1,92.9,69.9z"/>
</g>
<g>
	<rect x="125.6" y="114.8" class="st11" width="4.7" height="6.6"/>
	<g>
		<path class="st9" d="M128.1,113.1c-3,0-5.4,2.4-5.4,5.4c0,0.8,0.5,2.3,0.5,3.4c0,1.4-0.5,2.5-0.5,2.5s3.6,0,4.7,0c3,0,6-2.9,6-5.9
			C133.4,115.5,131,113.1,128.1,113.1z M128.4,120.7c0,0-1.6-1.6-1.6-2.5s0.7-1.6,1.6-1.6c0.9,0,1.6,0.7,1.6,1.6
			S128.4,120.7,128.4,120.7z"/>
		<g>
			<path class="st11" d="M97.3,120.8c0.6,0.6,0.8,1.4,0.8,2.5c0,1.1-0.3,2-0.8,2.5c-0.6,0.6-1.4,0.9-2.5,0.9h-3.2v-6.9h3.2
				C95.9,119.9,96.7,120.2,97.3,120.8z M95.7,124.7c0.2-0.3,0.3-0.8,0.3-1.4c0-0.7-0.1-1.1-0.3-1.4c-0.2-0.3-0.6-0.5-1.1-0.5h-0.8
				v3.8h0.8C95.1,125.2,95.4,125,95.7,124.7z"/>
			<path class="st11" d="M99.2,120.9c-0.2-0.1-0.3-0.4-0.3-0.7c0-0.3,0.1-0.6,0.3-0.7c0.2-0.1,0.5-0.2,0.9-0.2
				c0.4,0,0.7,0.1,0.9,0.2c0.2,0.1,0.3,0.4,0.3,0.7c0,0.3-0.1,0.6-0.3,0.7c-0.2,0.1-0.5,0.2-0.9,0.2C99.6,121.1,99.3,121,99.2,120.9
				z M101.1,126.7H99v-5.2h2.1V126.7z"/>
			<path class="st11" d="M104.5,121.5h1.5v1.4h-1.4v3.8h-2.1V123h-0.8v-1.4h0.8v-0.3c0-0.7,0.2-1.2,0.6-1.5c0.4-0.3,1-0.5,1.6-0.5
				c0.3,0,0.5,0,0.8,0.1c0.2,0.1,0.4,0.1,0.5,0.2l-0.2,1.3c-0.1-0.1-0.3-0.2-0.6-0.2c-0.3,0-0.5,0.1-0.6,0.2
				c-0.1,0.1-0.2,0.3-0.2,0.5V121.5z"/>
			<path class="st11" d="M108.5,121.5h1.5v1.4h-1.4v3.8h-2.1V123h-0.8v-1.4h0.8v-0.3c0-0.7,0.2-1.2,0.6-1.5c0.4-0.3,1-0.5,1.6-0.5
				c0.3,0,0.5,0,0.8,0.1c0.2,0.1,0.4,0.1,0.5,0.2l-0.2,1.3c-0.1-0.1-0.3-0.2-0.6-0.2c-0.3,0-0.5,0.1-0.6,0.2
				c-0.1,0.1-0.2,0.3-0.2,0.5V121.5z"/>
			<path class="st11" d="M116.1,121.5v5.2h-1.9l-0.1-1c-0.3,0.8-0.9,1.1-1.8,1.1c-1.2,0-1.7-0.6-1.7-1.8v-3.5h2.1v3
				c0,0.3,0,0.5,0.1,0.6c0.1,0.1,0.2,0.2,0.4,0.2c0.2,0,0.4-0.1,0.5-0.2c0.1-0.2,0.2-0.4,0.2-0.7v-2.7H116.1z"/>
			<path class="st11" d="M116.9,125.5l1.8-2l0.5-0.5l-0.8,0h-1.6v-1.4h4.7v1.2l-1.8,2l-0.5,0.5l0.9,0h1.6v1.4h-4.8V125.5z"/>
		</g>
	</g>
</g>
</svg>
