<?xml version="1.0" encoding="utf-8"?>
<!-- Generator: Adobe Illustrator 22.0.1, SVG Export Plug-In . SVG Version: 6.00 Build 0)  -->
<svg version="1.1" id="Calque_1" xmlns="http://www.w3.org/2000/svg" xmlns:xlink="http://www.w3.org/1999/xlink" x="0px" y="0px"
	 viewBox="0 0 400 722.9" style="enable-background:new 0 0 400 722.9;" xml:space="preserve">
<style type="text/css">
	.st0{fill:#042942;}
	.st1{fill:#FECD1A;}
	.st2{filter:url(#Adobe_OpacityMaskFilter);}
	.st3{fill:#FFFFFF;}
	.st4{mask:url(#SVGID_1_);}
	.st5{fill:none;stroke:#FECD1A;stroke-width:0.7;stroke-miterlimit:10;}
	.st6{fill:#F2F1EF;stroke:#FFFFFF;stroke-width:0.5;stroke-miterlimit:10;}
	.st7{fill:#E53357;}
	.st8{fill:none;}
	.st9{filter:url(#Adobe_OpacityMaskFilter_1_);}
	.st10{mask:url(#SVGID_2_);}
	.st11{fill:none;stroke:#042942;stroke-width:0.5;stroke-miterlimit:10;}
	.st12{filter:url(#Adobe_OpacityMaskFilter_2_);}
	.st13{mask:url(#SVGID_3_);}
	.st14{filter:url(#Adobe_OpacityMaskFilter_3_);}
	.st15{mask:url(#SVGID_4_);}
	.st16{font-family:'ArialMT';}
	.st17{font-size:12.6622px;}
	.st18{font-family:'WorkSans-ExtraBold';}
	.st19{font-size:22.3204px;}
	.st20{font-family:'Arial-BoldMT';}
	.st21{font-size:11.5111px;}
	.st22{font-size:27.6265px;}
	.st23{font-size:11.5723px;}
	.st24{font-size:10.5202px;}
</style>
<title>connection</title>
<line class="st0" x1="-15" y1="118.1" x2="-15" y2="-3.1"/>
<polyline class="st0" points="-15,-3.1 408.8,-3.1 408.8,741.3 -15,741.3 -15,118.1 "/>
<g>
	<g>
		<path class="st1" d="M294.9,689.2c-12.7,0-23-10.7-23-23.8c0-13.1,10.3-23.8,23-23.8c12.7,0,23,10.7,23,23.8
			C318,678.6,307.7,689.2,294.9,689.2z M294.9,642.5c-12.3,0-22.3,10.3-22.3,23c0,12.7,10,23,22.3,23c12.3,0,22.3-10.3,22.3-23
			C317.2,652.8,307.2,642.5,294.9,642.5z"/>
	</g>
	<g>
		<path class="st1" d="M302.4,667.5h-5.1v5.9h-4.6v-5.9h-5.2v-4h5.2v-5.9h4.6v5.9h5.1V667.5z"/>
	</g>
</g>
<defs>
	<filter id="Adobe_OpacityMaskFilter" filterUnits="userSpaceOnUse" x="-169.5" y="120" width="758.7" height="240.7">
		<feColorMatrix  type="matrix" values="1 0 0 0 0  0 1 0 0 0  0 0 1 0 0  0 0 0 1 0"/>
	</filter>
</defs>
<mask maskUnits="userSpaceOnUse" x="-169.5" y="120" width="758.7" height="240.7" id="SVGID_1_">
	<g class="st2">
		
			<rect x="-148.4" y="238.6" transform="matrix(-1.836970e-16 1 -1 -1.836970e-16 650.0723 270.0461)" class="st3" width="676.9" height="443"/>
	</g>
</mask>
<g class="st4">
	<polygon class="st5" points="99.5,122.1 -59,122.1 -161.6,237.8 -3.2,237.8 	"/>
	<polygon class="st6" points="260.2,122.1 106.2,122.1 3.5,237.8 157.5,237.8 	"/>
	<polygon class="st1" points="425.5,120 267,120 164.4,237.8 322.8,237.8 	"/>
	<polygon class="st5" points="588.5,122.1 430,122.1 329.5,237.8 488,237.8 	"/>
	<polygon class="st5" points="92.4,242.6 -66,242.6 -168.7,360.4 -10.2,360.4 	"/>
	<polygon class="st7" points="259.1,242.6 100.6,242.6 -2.1,360.4 156.4,360.4 	"/>
	<polygon class="st5" points="419.8,242.6 265.8,242.6 163.1,360.4 317.1,360.4 	"/>
</g>
<g>
	<path class="st8" d="M131.5,200.4v-2.6c0-0.2,0-0.4,0.1-0.7C131.4,197.8,131.4,198.9,131.5,200.4z"/>
	<path class="st8" d="M133.9,141.2c-20.3,0-36.9,16.5-36.9,36.9c0,6.4,1.6,12.3,4.5,17.6v-3c0-3.2,2-7.5,6.2-9.5
		c0.8-0.4,1.6-0.6,2.5-0.6h1.2h2.3h7.6h0.2h7.6h2.3h1.2c0.9,0,1.7,0.2,2.5,0.6c2.2,1.1,3.9,2.8,4.9,4.7c0,0,0,0,0,0h1.2h2.3h7.5h0.2
		h7.5h2.3h1.2c0.9,0,1.7,0.2,2.5,0.6c1.5,0.7,2.7,1.7,3.6,2.8c0.2-0.5,0.4-1.1,0.6-1.6c-0.6-0.6-1.3-1.2-2.1-1.8
		c0.7,0.3,1.5,0.6,2.3,1.1c1.1-3.4,1.6-7.1,1.6-10.8C170.7,157.8,154.2,141.2,133.9,141.2z M110.5,181.6c-6,0.5-7.7-5.2-7.7-5.2
		c0.7,1.5,2.6,1.6,3.7,0.5c1-1,0-4.3,0-8.3c0-4,3-9.8,7.8-9.8c4.8,0,5.7,1.8,5.7,1.8v1.5l0,0.3c-4.8,0.3-8.6,4.3-8.6,9.2
		c0,4,2.6,7.4,6.2,8.7C116.1,180.8,113.7,181.4,110.5,181.6z M120.5,163.8c0.3,0,0.6,0,0.9,0.1c1.5,0.2,2.9,0.8,4.1,1.7
		c0.7,0.6,1.3,1.3,1.8,2.1c-0.7,0.4-1.6,0.6-2.6,0.6c-2.3,0-4.2-1.2-4.2-2.7c0,1.5-1.9,2.7-4.2,2.7c-1,0-1.9-0.2-2.6-0.6
		c0.5-0.8,1.1-1.5,1.8-2.1c1.1-0.9,2.5-1.5,4-1.7C119.9,163.8,120.2,163.8,120.5,163.8z M120.5,179.6c-4.4,0-7.9-3.5-7.9-7.9
		c0-0.9,0.2-1.8,0.5-2.7H128c0.3,0.8,0.5,1.7,0.5,2.7C128.4,176,124.9,179.6,120.5,179.6z M130.4,181.6c-3.2-0.2-5.6-0.8-7-1.3
		c3.6-1.2,6.2-4.7,6.2-8.7c0-4.9-3.8-8.9-8.6-9.2l0-0.3v-1.5c0,0,0.9-1.8,5.7-1.8c4.8,0,7.8,5.8,7.8,9.8c0,4-1,7.3,0,8.3
		c1,1,3,0.9,3.7-0.5C138.1,176.4,136.4,182.1,130.4,181.6z M159.2,177.8c0,4.5-3.7,8.2-8.2,8.2c-4.5,0-8.2-3.7-8.2-8.2v-13.2
		l4.6,5.8c1.1-0.5,2.3-0.8,3.6-0.8c1.3,0,2.5,0.3,3.6,0.8l4.6-5.8V177.8z"/>
	<path class="st8" d="M111.3,202.5c0-0.1,0-0.3,0-0.4c0-4.2,0.5-6.1-1.1-6.1c-0.8,0-1.1,0.4-1.2,1.1v8.1c0.7,0.7,1.5,1.3,2.3,2v-4.3
		C111.3,202.8,111.3,202.6,111.3,202.5z"/>
	<path class="st8" d="M161,203c0.5-0.6,1.1-1.2,1.6-1.8c-0.1,0-0.2-0.1-0.4-0.1C161.3,201.1,161.1,201.7,161,203z"/>
	<path class="st8" d="M140.2,214.4c0.3-0.1,0.6-0.1,0.9-0.1v-1.4C141,213.4,140.7,214,140.2,214.4z"/>
	<path class="st0" d="M97,178.1c0-20.3,16.5-36.9,36.9-36.9c20.3,0,36.9,16.5,36.9,36.9c0,3.8-0.6,7.4-1.6,10.8
		c0.5,0.3,1,0.6,1.5,0.9c1.2-3.7,1.8-7.7,1.8-11.7c0-21.3-17.3-38.6-38.6-38.6s-38.6,17.3-38.6,38.6c0,7.7,2.3,14.8,6.2,20.8v-3.3
		C98.6,190.5,97,184.5,97,178.1z"/>
	<path class="st0" d="M162.6,201.2c-0.5,0.6-1,1.2-1.6,1.8c0,0.6,0,1.5,0,2.5c0.8-0.8,1.6-1.6,2.3-2.5v-0.8
		C163.3,201.7,163.1,201.3,162.6,201.2z"/>
	<path class="st0" d="M168.3,191.3c0.5,0.6,0.8,1.1,1.2,1.7c0.3-0.6,0.5-1.2,0.7-1.9c-0.4-0.5-0.8-1-1.3-1.5
		C168.7,190.2,168.5,190.8,168.3,191.3z"/>
	<path class="st0" d="M151,169.7c-1.3,0-2.5,0.3-3.6,0.8l-4.6-5.8v13.2c0,4.5,3.7,8.2,8.2,8.2c4.5,0,8.2-3.7,8.2-8.2v-13.2l-4.6,5.8
		C153.5,170,152.3,169.7,151,169.7z"/>
	<path class="st0" d="M169.1,189c-0.1,0.2-0.2,0.5-0.2,0.7c0.5,0.5,0.9,1,1.3,1.5c0.2-0.4,0.3-0.9,0.5-1.3
		C170.1,189.5,169.6,189.2,169.1,189z"/>
	<path class="st0" d="M131.5,202.5c0-0.1,0-0.3,0-0.4c0-0.6,0-1.2,0-1.7v14.5c0,0,0,0,0,0v-12C131.5,202.8,131.5,202.6,131.5,202.5z
		"/>
	<path class="st0" d="M131.5,216.6c0,0.1,0,0.1,0,0.2L131.5,216.6C131.5,216.6,131.5,216.6,131.5,216.6z"/>
	<path class="st0" d="M169.4,193c-0.3-0.6-0.7-1.2-1.2-1.7c-0.9-1.1-2.1-2.1-3.6-2.8c-0.7-0.4-1.6-0.6-2.5-0.6H161h-2.3h-7.5H151
		h-7.5h-2.3H140c0,0,0,0,0,0c-1-1.9-2.6-3.6-4.9-4.7c-0.8-0.4-1.6-0.6-2.5-0.6h-1.2h-2.3h-7.6h-0.2h-7.6h-2.3h-1.2
		c-0.9,0-1.7,0.2-2.5,0.6c-4.2,2-6.2,6.3-6.2,9.5v3v3.3c2.1,3.2,4.6,6.1,7.5,8.6c0.7,0.6,1.5,1.2,2.3,1.8c5.8,4.2,12.7,6.8,20.2,7.3
		c0,0,0,0,0,0v-1.7v-14.5c0-1.5-0.1-2.6,0.1-3.3c0,0.2-0.1,0.5-0.1,0.7v2.6c0,0.5,0,1.1,0,1.7c0,0.1,0,0.3,0,0.4c0,0.1,0,0.2,0,0.3
		v12v1.7c0.8,0,1.6,0.1,2.4,0.1c1.7,0,3.4-0.2,5-0.4c0.8-0.1,1.5-0.2,2.3-0.3c7.7-1.5,14.6-5.2,19.9-10.5c0-1,1.1-1.9,1.1-2.5
		c0-1.2,0.2-1.1,1-1.1c0,0.1,0.1,0.2,0.1,0.4v0.8C165.9,200,167.9,196.7,169.4,193z M111.3,202.5c0,0.1,0,0.2,0,0.3v4.3
		c-0.8-0.6-1.6-1.3-2.3-2v-8.1c0.1-0.6,0.4-1.1,1.2-1.1c1.6,0,1.1,1.8,1.1,6.1C111.3,202.3,111.3,202.4,111.3,202.5z M140.2,214.4
		c0.2-0.2,0.3-0.1,0.4-0.1C140.5,214.4,140.4,214.4,140.2,214.4z M162.6,201.2c0.3,0.1,0.5,0.3,0.6,0.5
		C163,201.5,162.5,201.2,162.6,201.2z"/>
	<path class="st0" d="M131.5,216.6C131.5,216.6,131.5,216.6,131.5,216.6C131.5,216.6,131.5,216.6,131.5,216.6l0-1.7c0,0,0,0,0,0
		V216.6z"/>
	<path class="st0" d="M111.3,171.7c0-4.9,3.8-8.9,8.6-9.2l0-0.3v-1.5c0,0-0.9-1.8-5.7-1.8c-4.8,0-7.8,5.8-7.8,9.8c0,4,1,7.3,0,8.3
		c-1,1-3,0.9-3.7-0.5c0,0,1.7,5.7,7.7,5.2c3.2-0.2,5.6-0.8,7-1.3C113.9,179.1,111.3,175.7,111.3,171.7z"/>
	<path class="st0" d="M134.4,177c-1-1,0-4.3,0-8.3c0-4-3-9.8-7.8-9.8c-4.8,0-5.7,1.8-5.7,1.8v1.5l0,0.3c4.8,0.3,8.6,4.3,8.6,9.2
		c0,4-2.6,7.4-6.2,8.7c1.5,0.5,3.8,1,7,1.3c6,0.5,7.7-5.2,7.7-5.2C137.4,177.9,135.4,178,134.4,177z"/>
	<path class="st0" d="M128.4,171.7c0-0.9-0.2-1.8-0.5-2.7h-14.9c-0.3,0.8-0.5,1.7-0.5,2.7c0,4.4,3.5,7.9,7.9,7.9
		C124.9,179.6,128.4,176,128.4,171.7z"/>
	<path class="st0" d="M115.6,165.5c-0.7,0.6-1.4,1.3-1.8,2.1c0.7,0.4,1.6,0.6,2.6,0.6c2.3,0,4.2-1.2,4.2-2.7c0,1.5,1.9,2.7,4.2,2.7
		c1,0,1.9-0.2,2.6-0.6c-0.5-0.8-1.1-1.5-1.8-2.1c-1.1-0.9-2.5-1.5-4.1-1.7c-0.3,0-0.6-0.1-0.9-0.1c-0.3,0-0.7,0-1,0.1
		C118.1,164,116.7,164.6,115.6,165.5z"/>
</g>
<defs>
	<filter id="Adobe_OpacityMaskFilter_1_" filterUnits="userSpaceOnUse" x="-169.5" y="-2.4" width="589.8" height="120.9">
		<feColorMatrix  type="matrix" values="1 0 0 0 0  0 1 0 0 0  0 0 1 0 0  0 0 0 1 0"/>
	</filter>
</defs>
<mask maskUnits="userSpaceOnUse" x="-169.5" y="-2.4" width="589.8" height="120.9" id="SVGID_2_">
	<g class="st9">
		
			<rect x="-147.2" y="-9.7" transform="matrix(-1.836970e-16 1 -1 -1.836970e-16 417.8048 21.7786)" class="st3" width="690.5" height="459"/>
	</g>
</mask>
<g class="st10">
	<polygon class="st5" points="92.4,-2.1 -66,-2.1 -168.7,118.1 -10.2,118.1 	"/>
	<polygon class="st5" points="259.1,-2.1 100.6,-2.1 -2.1,118.1 156.4,118.1 	"/>
	<polygon class="st6" points="419.8,-2.1 265.8,-2.1 163.1,118.1 317.1,118.1 	"/>
</g>
<line class="st11" x1="48.2" y1="294.1" x2="214.8" y2="294.1"/>
<defs>
	<filter id="Adobe_OpacityMaskFilter_2_" filterUnits="userSpaceOnUse" x="-167.3" y="362.8" width="655.3" height="240.7">
		<feColorMatrix  type="matrix" values="1 0 0 0 0  0 1 0 0 0  0 0 1 0 0  0 0 0 1 0"/>
	</filter>
</defs>
<mask maskUnits="userSpaceOnUse" x="-167.3" y="362.8" width="655.3" height="240.7" id="SVGID_3_">
	<g class="st12">
		
			<rect x="-148.4" y="481.3" transform="matrix(-1.836970e-16 1 -1 -1.836970e-16 892.7913 512.7651)" class="st3" width="676.9" height="443"/>
	</g>
</mask>
<g class="st13">
	<polygon class="st5" points="99.5,364.8 -59,364.8 -161.6,480.6 -3.2,480.6 	"/>
	<polygon class="st5" points="260.2,364.8 106.2,364.8 3.5,480.6 157.5,480.6 	"/>
	<polygon class="st1" points="425.5,362.8 267,362.8 164.4,480.6 322.8,480.6 	"/>
	<polyline class="st5" points="430,364.8 329.5,480.6 488,480.6 	"/>
	<polygon class="st5" points="94.7,485.3 -63.8,485.3 -166.5,603.1 -8,603.1 	"/>
	<polygon class="st1" points="259.1,485.3 100.6,485.3 -2.1,603.1 156.4,603.1 	"/>
	<polygon class="st5" points="419.8,485.3 265.8,485.3 163.1,603.1 317.1,603.1 	"/>
</g>
<defs>
	<filter id="Adobe_OpacityMaskFilter_3_" filterUnits="userSpaceOnUse" x="-162.4" y="607.2" width="751.6" height="116.5">
		<feColorMatrix  type="matrix" values="1 0 0 0 0  0 1 0 0 0  0 0 1 0 0  0 0 0 1 0"/>
	</filter>
</defs>
<mask maskUnits="userSpaceOnUse" x="-162.4" y="607.2" width="751.6" height="116.5" id="SVGID_4_">
	<g class="st14">
		
			<rect x="-145.6" y="710.9" transform="matrix(-1.836970e-16 1 -1 -1.836970e-16 1138.3666 742.3405)" class="st3" width="687.3" height="459"/>
	</g>
</mask>
<g class="st15">
	<polygon class="st5" points="99.5,607.6 -59,607.6 -161.6,723.3 -3.2,723.3 	"/>
	<polygon class="st5" points="425.5,607.6 267,607.6 164.4,723.3 322.8,723.3 	"/>
	<polygon class="st5" points="588.5,607.6 430,607.6 329.5,723.3 488,723.3 	"/>
</g>
<text transform="matrix(0.9695 0 0 1 33.3994 226.869)" class="st0 st16 st17">Mes amis</text>
<text transform="matrix(0.9695 0 0 1 187.4102 110.059)" class="st0 st16 st17">Mon profil</text>
<g>
	<text transform="matrix(0.9695 0 0 1 258.6543 178.9403)"><tspan x="0" y="0" class="st0 st18 st19">Tous </tspan><tspan x="-19.7" y="17.9" class="st0 st18 st19">les défis</tspan></text>
</g>
<text transform="matrix(0.9695 0 0 1 263.7969 412.4506)"><tspan x="0" y="0" class="st0 st18 st19">Défis </tspan><tspan x="-13.9" y="17.9" class="st0 st18 st19">de mes  </tspan><tspan x="2.2" y="35.7" class="st0 st18 st19">amis</tspan></text>
<g>
	<ellipse class="st0" cx="371.3" cy="384.1" rx="12.2" ry="12.5"/>
	<text transform="matrix(0.9695 0 0 1 367.7891 388.9545)" class="st3 st20 st21">5</text>
</g>
<text transform="matrix(0.9695 0 0 1 103.6582 287.3778)" class="st3 st18 st22">Web</text>
<text transform="matrix(0.9695 0 0 1 49.9683 323.8788)" class="st0 st16 st17">Nature et environnement</text>
<g>
	<text transform="matrix(1.0608 0 0 1 43.272 340.5502)" class="st0 st16 st23">Bien être et santé</text>
</g>
<g>
	<ellipse class="st0" cx="217.1" cy="260.4" rx="12.2" ry="11.5"/>
	<text transform="matrix(1.0608 0 0 1 213.5801 264.827)" class="st3 st20 st24">7</text>
</g>
<path class="st0" d="M374.8,158H354c-8.4,0-15.3-6.8-15.3-15.3v0c0-8.4,6.8-15.3,15.3-15.3h20.8c8.4,0,15.3,6.8,15.3,15.3v0
	C390,151.2,383.2,158,374.8,158z"/>
<text transform="matrix(0.9695 0 0 1 353.2744 147.3822)" class="st3 st20 st21">1200</text>
<path class="st0" d="M212.3,158h-3c-8.4,0-15.3-6.8-15.3-15.3v0c0-8.4,6.8-15.3,15.3-15.3h3c8.4,0,15.3,6.8,15.3,15.3v0
	C227.6,151.2,220.7,158,212.3,158z"/>
<text transform="matrix(0.9695 0 0 1 204.6113 147.3822)" class="st3 st20 st21">20</text>
<line class="st11" x1="57.4" y1="535.2" x2="217.1" y2="535.2"/>
<text transform="matrix(0.9695 0 0 1 85.2686 527.7377)" class="st0 st18 st19">Chez moi</text>
<g>
	<text transform="matrix(0.9695 0 0 1 64.0645 554.3392)" class="st0 st16 st17">Moins de 5 km</text>
</g>
<g>
	<text transform="matrix(0.9695 0 0 1 57.3682 571.6049)" class="st0 st16 st17">Bien être et santé</text>
</g>
<ellipse class="st0" cx="217.1" cy="502.6" rx="12.2" ry="12.5"/>
<text transform="matrix(0.9695 0 0 1 213.582 507.4193)" class="st3 st20 st21">5</text>
<g>
	<path class="st8" d="M274.7,49.1c-4,2.6-5.8,7-5.8,10.4v19.7c0,3,2.5,5.5,5.5,5.5c1.5,0,2.8-0.6,3.8-1.5l0,9.2
		c0.9,0.4,1.9,0.7,2.8,1V69.9c0-0.1,0-0.2,0-0.3c0-0.1,0-0.3,0-0.4c0-4.3,0.5-6.2-1.2-6.2c-0.8,0-1.1,0.4-1.2,1.1v15
		c0,2.1-1.7,3.9-3.9,3.9c-2.1,0-3.9-1.7-3.9-3.9V59.4c0-3.3,2.1-7.8,6.4-9.8c0.8-0.4,1.6-0.6,2.6-0.6h1.3h2.4h7.9h0.2h7.9h2.4h1.3
		c0.9,0,1.8,0.2,2.6,0.6c4.3,2,6.4,6.5,6.4,9.8v19.6c0,2.1-1.7,3.9-3.9,3.9c-2.1,0-3.9-1.7-3.9-3.9V64c-0.1-0.7-0.4-1.1-1.2-1.1
		c-1.7,0-1.2,1.9-1.2,6.2c0,0.1,0,0.3,0,0.4c0,0.1,0,0.2,0,0.3v23.5c15.3-4.5,26.5-18.6,26.5-35.4c0-20.3-16.5-36.9-36.9-36.9
		c-20.3,0-36.9,16.5-36.9,36.9c0,7.9,2.5,15.2,6.8,21.2c1.9-7.5,3.1-15.2,4.2-20.5C266.7,53.1,271.2,50.4,274.7,49.1z M281.7,28.2
		c2.2-4.3,6.7-2.3,6.7-2.3s-1.3,0.5-1.4,1.4c-0.1,0.9,1.2,1.5,3.6,0.9c2.3-0.6,5.4-0.8,7.8,0.9c2.3,1.7,4.1,6.1,2.1,8.9h0
		c0,0.2,0,0.3,0,0.5c0,4.8-3.9,8.8-8.8,8.8c-4.8,0-8.8-3.9-8.8-8.8c0-1.3,0.3-2.5,0.8-3.6C282.5,34,279.9,31.6,281.7,28.2z"/>
	<path class="st8" d="M291.4,83.1c-0.5,0-1,0.5-1,1.3v10.4c0.4,0,0.7,0.1,1,0.1c0.3,0,0.6,0,0.9,0V84.4
		C292.4,83.6,291.9,83.1,291.4,83.1z"/>
	<path class="st0" d="M291.5,19.4c-21.3,0-38.6,17.3-38.6,38.6c0,8.8,3,16.8,7.9,23.3c0.2-0.7,0.4-1.4,0.5-2.1
		c-4.3-6-6.8-13.3-6.8-21.2c0-20.3,16.5-36.9,36.9-36.9c20.3,0,36.9,16.5,36.9,36.9c0,16.7-11.2,30.9-26.5,35.4V69.9
		c0-0.1,0-0.2,0-0.3c0-0.1,0-0.3,0-0.4c0-4.3-0.5-6.2,1.2-6.2c0.8,0,1.1,0.4,1.2,1.1v15c0,2.1,1.7,3.9,3.9,3.9
		c2.1,0,3.9-1.7,3.9-3.9V59.4c0-3.3-2.1-7.8-6.4-9.8c-0.8-0.4-1.6-0.6-2.6-0.6h-1.3h-2.4h-7.9h-0.2h-7.9h-2.4h-1.3
		c-0.9,0-1.8,0.2-2.6,0.6c-4.3,2-6.4,6.5-6.4,9.8v19.6c0,2.1,1.7,3.9,3.9,3.9c2.1,0,3.9-1.7,3.9-3.9V64c0.1-0.7,0.4-1.1,1.2-1.1
		c1.7,0,1.2,1.9,1.2,6.2c0,0.1,0,0.3,0,0.4c0,0.1,0,0.2,0,0.3v23.4c-1-0.3-1.9-0.6-2.8-1l0,1.8c0.9,0.3,1.9,0.7,2.8,0.9
		c3,0.9,6.2,1.3,9.5,1.4c0.4,0,0.7,0.1,1,0.1c0.3,0,0.6,0,0.9,0c3.3-0.1,6.4-0.6,9.5-1.4c16.3-4.5,28.2-19.5,28.2-37.1
		C330.1,36.7,312.8,19.4,291.5,19.4z M291.5,94.9c-0.4,0-0.7,0-1-0.1V84.4c0-0.9,0.5-1.3,1-1.3c0.5,0,1,0.5,1,1.3v10.4
		C292.1,94.9,291.8,94.9,291.5,94.9z"/>
	<path class="st0" d="M283.6,34.9c-0.5,1.1-0.8,2.3-0.8,3.6c0,4.8,3.9,8.8,8.8,8.8c4.8,0,8.8-3.9,8.8-8.8c0-0.2,0-0.3,0-0.5h0
		c2-2.7,0.2-7.2-2.1-8.9c-2.3-1.7-5.4-1.5-7.8-0.9c-2.3,0.6-3.7,0-3.6-0.9c0.1-0.9,1.4-1.4,1.4-1.4s-4.5-2-6.7,2.3
		C279.9,31.6,282.5,34,283.6,34.9z"/>
	<path class="st7" d="M274.4,84.7c-3,0-5.5-2.5-5.5-5.5V59.5c0-3.4,1.8-7.8,5.8-10.4c-3.5,1.3-8,4-9.2,9.6
		c-1.1,5.3-2.3,13.1-4.2,20.5c-0.2,0.7-0.4,1.4-0.5,2.1c4.4,5.8,10.4,10.3,17.3,12.8l0-1.8l0-9.2C277.2,84.1,275.9,84.7,274.4,84.7z
		"/>
</g>
<g>
	<path class="st7" d="M79.8,636.1l-13.6,15.4c8.5-0.9,17-2.2,20.2-4.2C92.4,643.8,83.5,638.2,79.8,636.1z"/>
	<path class="st7" d="M112.7,705.4c-7.4-1.7-13.4,13.5-13.4,13.5s2.9-16.9-1.9-18.3c-4.8-1.3-41.5,22.5-41.5,22.5s31.8-25.7,28-30.8
		c-3-4-25.5,6-35.4,10.7c-2.8,1.4-4.6,2.2-4.6,2.2s1.8-0.9,4.6-2.2c10-4.9,32.5-16.4,31.2-19.5c-1.7-4-37.7,3.6-37.7,3.6
		s32.4-13.1,31.2-16.8c-0.7-2.2-8.2-2.2-13.9-1.9c-3.6,0.4-6.3,0.5-6.3,0.5s2.8-0.3,6.3-0.5c6.9-0.8,17-2.6,16.9-6.5
		c-0.1-2.7-6.7-4.8-13.9-6.3L2.3,723.5h114.3C116.9,714.9,116.3,706.3,112.7,705.4z"/>
	<path class="st7" d="M195.1,665.3c-1.6,3.5,1.7,6.1,5.9,7.9l15.2-17.1C208.8,657.3,197.5,660,195.1,665.3z"/>
	<path class="st7" d="M99.1,637.3c1-2.7-2.5-8.5-7.3-14.7l-11.9,13.5C84.2,638,96.9,643.2,99.1,637.3z"/>
	<path class="st7" d="M184.1,636.5c0,5.3,10.5,4,19,2c5.6-1.9,10.6-3,10.6-3s-4.8,1.6-10.6,3c-7.5,2.5-16.3,6.4-16.3,10.9
		c0,5.9,19.8,6.2,30,6l42.2-47.6h-50.7c-0.1,0.1-0.2,0.1-0.3,0.2C199.1,615.9,184.1,630.2,184.1,636.5z"/>
	<path class="st7" d="M122.4,629.1c6.7-2.1,1-14.7,1-14.7s6.7,13.5,15,10.5c3.6-1.3,7.3-8.9,10.5-17.1H105l-8.1,9.2
		C107.9,623.8,119.2,630.1,122.4,629.1z"/>
	<path class="st7" d="M133.8,712.1c-2.4,0.5-6.1,5.6-9.5,11.4h22.2C143.1,718.5,137.7,711.3,133.8,712.1z"/>
	<path class="st7" d="M153.2,625.8c2.5,8.9,22.1-15.2,22.1-15.2s-10.5,12.9-2.7,17.7c5.7,3.5,25.1-11.7,35.4-20.3
		c0.1-0.1,0.2-0.1,0.2-0.2h-55.1C152.5,615.2,152.2,622.3,153.2,625.8z"/>
	<path class="st7" d="M167.5,700.9c-2.2,1.9-1.8,5.7-0.1,10.1l9.1-10.3C173.2,699.3,169.9,698.8,167.5,700.9z"/>
	<path class="st7" d="M179.7,690.2c-2.3,1.7-2,4.5-0.4,7.5l7.3-8.2C183.6,689,181.2,689.1,179.7,690.2z"/>
	<path class="st7" d="M190.2,677.6c-1.1,1.6-0.4,3.7,1.4,6.1l8.4-9.4C195.9,674.3,192,675,190.2,677.6z"/>
	<path class="st7" d="M152.6,706.2c-5.2,1.3-4.8,11.3-4,17.3h7.7l8.5-9.6C160.1,709.1,155.4,705.5,152.6,706.2z"/>
	<path class="st0" d="M78.4,635.4c0,0,0.6,0.3,1.4,0.8l0.1-0.1C79,635.6,78.4,635.4,78.4,635.4z"/>
	<path class="st0" d="M208.3,607.8L208.3,607.8c-0.1,0.1-0.2,0.1-0.3,0.2C208.1,607.9,208.2,607.9,208.3,607.8z"/>
	<path class="st3" d="M216.2,656l0.6-0.6c-10.2,0.3-30,0-30-6c0-4.6,8.8-8.5,16.3-10.9c-8.5,2-19,3.3-19-2c0-6.3,15.1-20.6,24-28.5
		c-10.3,8.6-29.8,23.8-35.4,20.3c-7.8-4.8,2.7-17.7,2.7-17.7s-19.6,24.2-22.1,15.2c-1-3.5-0.7-10.7,0-18.1h-4.3
		c-3.2,8.2-6.9,15.8-10.5,17.1c-8.4,3-15-10.5-15-10.5s5.7,12.6-1,14.7c-3.1,1-14.4-5.2-25.5-12.1l-5,5.7c4.8,6.2,8.3,12,7.3,14.7
		c-2.2,6-14.9,0.8-19.3-1.2l-0.1,0.1c3.6,2,12.6,7.7,6.6,11.2c-3.3,1.9-11.7,3.3-20.2,4.2l-3.8,4.2c7.2,1.5,13.8,3.6,13.9,6.3
		c0.1,3.9-10,5.7-16.9,6.5c5.7-0.3,13.2-0.3,13.9,1.9C74.4,674,42,687.2,42,687.2s36-7.6,37.7-3.6c1.3,3.1-21.2,14.6-31.2,19.5
		c9.9-4.7,32.4-14.7,35.4-10.7c3.8,5.1-28,30.8-28,30.8s36.7-23.8,41.5-22.5c4.8,1.3,1.9,18.3,1.9,18.3s5.9-15.2,13.4-13.5
		c3.6,0.8,4.3,9.5,3.9,18.1h7.7c3.4-5.8,7.1-11,9.5-11.4c3.9-0.7,9.4,6.4,12.7,11.4h2.2c-0.8-6.1-1.2-16,4-17.3
		c2.8-0.7,7.4,2.9,12.2,7.7l2.6-2.9c-1.7-4.4-2.1-8.3,0.1-10.1c2.4-2,5.7-1.6,9.1-0.2l2.7-3c-1.5-3-1.9-5.8,0.4-7.5
		c1.5-1.1,4-1.2,6.9-0.8l5.1-5.7c-1.8-2.4-2.6-4.5-1.4-6.1c1.9-2.6,5.8-3.4,9.8-3.3l1-1.2c-4.2-1.8-7.5-4.3-5.9-7.9
		C197.5,660,208.8,657.3,216.2,656z"/>
</g>
<g>
	<text transform="matrix(0.9695 0 0 1 93.7988 662.392)"><tspan x="0" y="0" class="st0 st18 st19">Lancer </tspan><tspan x="-0.4" y="17.9" class="st0 st18 st19">un défi</tspan></text>
</g>
</svg>
