<svg id="Calque_1" data-name="Calque 1" xmlns="http://www.w3.org/2000/svg" viewBox="0 0 253.79 437.13"><defs><style>.cls-1{fill:#f2f1ef;stroke-width:0.5px;}.cls-1,.cls-19{stroke:#fff;stroke-miterlimit:10;}.cls-2,.cls-4{fill:#fecd1a;}.cls-2{opacity:0.2;}.cls-15,.cls-19,.cls-3,.cls-5,.cls-9{fill:#042942;}.cls-5{font-size:7px;}.cls-5,.cls-9{font-family:ArialMT, Arial;}.cls-6{letter-spacing:-0.02em;}.cls-11,.cls-12,.cls-13,.cls-7{fill:#e53357;font-family:Arial-Black, Arial;}.cls-8{letter-spacing:-0.02em;}.cls-10{letter-spacing:-0.06em;}.cls-11{letter-spacing:0.02em;}.cls-12{letter-spacing:0.06em;}.cls-13,.cls-14{letter-spacing:-0.03em;}.cls-15{font-size:11.36px;font-family:WorkSans-ExtraBold, Work Sans;font-weight:700;letter-spacing:0em;}.cls-16{letter-spacing:-0.04em;}.cls-17{letter-spacing:0em;}.cls-18{fill:#fff;}</style></defs><title>info_v2</title><rect class="cls-1" x="-75.12" y="70.19" width="328.36" height="185.03" transform="translate(290.07 75.37) rotate(90)"/><circle class="cls-2" cx="126.9" cy="310.24" r="109.69"/><circle class="cls-2" cx="126.9" cy="310.24" r="126.9"/><circle class="cls-3" cx="126.9" cy="310.24" r="103.32"/><path class="cls-4" d="M105.25,180.37q5.35,3.34,5.35,10.11,0,12.5-14.64,14.06l-.77,6.39H83.94l-.69-11.3q7.08-.52,10.17-2.34a5.5,5.5,0,0,0,3.08-4.87,4.59,4.59,0,0,0-1.66-3.8,7.8,7.8,0,0,0-5-1.34,7.53,7.53,0,0,0-5.39,1.9,8.34,8.34,0,0,0-2.31,5.62l-12.64-4.69a13.73,13.73,0,0,1,6.13-9.52Q80.85,177,90.8,177,99.89,177,105.25,180.37ZM95.07,216.51a5.67,5.67,0,0,1,2,4.61,5.77,5.77,0,0,1-2,4.65,8.09,8.09,0,0,1-5.43,1.67,8.23,8.23,0,0,1-5.51-1.67,5.76,5.76,0,0,1-2-4.65,5.66,5.66,0,0,1,2-4.61,8.38,8.38,0,0,1,5.51-1.63A8.24,8.24,0,0,1,95.07,216.51Z" transform="translate(38.29 1.72)"/><text class="cls-5" transform="translate(60.98 61.2)">Di<tspan class="cls-6" x="6.61" y="0">f</tspan><tspan x="8.43" y="0">fuz, c&apos;est LE réseau social des défis </tspan><tspan x="0" y="9.6">solidaires. Gratuit, ouvert à tous, il facilite </tspan><tspan x="0" y="19.2">l’engagement solidaire et crée du lien entre </tspan><tspan class="cls-7"><tspan x="0" y="28.8">les associ</tspan><tspan class="cls-8" x="38.5" y="28.8">a</tspan><tspan x="43.05" y="28.8">tions et les cit</tspan><tspan class="cls-8" x="98.26" y="28.8">oy</tspan><tspan x="106.97" y="28.8">ens en </tspan><tspan x="0" y="38.4">quête d’action ! </tspan><tspan class="cls-9" x="61.84" y="38.4">Il permet de se mobiliser </tspan></tspan><tspan x="0" y="48">pour une cause, de trouver des ressources </tspan><tspan x="0" y="57.6">ou de lancer une collecte près </tspan><tspan x="0" y="67.2">de chez soi.</tspan><tspan class="cls-10" x="37.35" y="67.2"> </tspan><tspan class="cls-6" x="38.91" y="67.2">A</tspan><tspan x="43.46" y="67.2">vec Di</tspan><tspan class="cls-6" x="62.9" y="67.2">f</tspan><tspan x="64.72" y="67.2">fuz, chacun a le pouvoir </tspan><tspan x="0" y="76.8">d&apos;</tspan><tspan class="cls-11" x="5.23" y="76.8">a</tspan><tspan class="cls-7" x="10.01" y="76.8">gir au se</tspan><tspan class="cls-12" x="43.07" y="76.8">r</tspan><tspan class="cls-7" x="46.58" y="76.8">vice de la solidarité</tspan><tspan x="122.03" y="76.8">, </tspan><tspan x="0" y="86.4">ponctuellement, </tspan><tspan class="cls-7" x="51.37" y="86.4">où il </tspan><tspan class="cls-13" x="70.03" y="86.4">v</tspan><tspan class="cls-7" x="74.13" y="86.4">eut et quand il </tspan><tspan class="cls-7"><tspan class="cls-14" x="0" y="96">v</tspan><tspan x="4.09" y="96">eut</tspan><tspan class="cls-9" x="16.54" y="96">, en fonction de ses centres d&apos;intérêt. </tspan></tspan></text><text class="cls-15" transform="translate(126.36 40.72)">c<tspan class="cls-16" x="6.5" y="0">’</tspan><tspan class="cls-17" x="9.54" y="0">est quoi ? </tspan></text><rect class="cls-18" x="114.59" y="22.31" width="7.33" height="10.25"/><path class="cls-4" d="M80.16,17.93a8.31,8.31,0,0,0-8.31,8.31c0,1.3.85,3.52.85,5.33a9.24,9.24,0,0,1-.85,3.83H79.1c4.59,0,9.37-4.57,9.37-9.16A8.31,8.31,0,0,0,80.16,17.93Zm.43,11.72S78,27.23,78,25.81a2.56,2.56,0,0,1,5.11,0C83.14,27.23,80.59,29.65,80.59,29.65Z" transform="translate(38.29 1.72)"/><path class="cls-3" d="M32.38,29.81a5.47,5.47,0,0,1,1.32,3.94,5.48,5.48,0,0,1-1.32,4,5,5,0,0,1-3.8,1.38H23.69V28.43h4.89A5,5,0,0,1,32.38,29.81ZM29.83,36a4,4,0,0,0,.48-2.23,4,4,0,0,0-.48-2.22,1.9,1.9,0,0,0-1.65-.7H27v5.85h1.2A1.9,1.9,0,0,0,29.83,36Z" transform="translate(38.29 1.72)"/><path class="cls-3" d="M35.28,30a1.66,1.66,0,0,1,0-2.21,2.24,2.24,0,0,1,1.41-.34,2.23,2.23,0,0,1,1.4.34,1.66,1.66,0,0,1,0,2.21,2.23,2.23,0,0,1-1.4.34A2.24,2.24,0,0,1,35.28,30Zm3,9.12H35.06V31h3.26Z" transform="translate(38.29 1.72)"/><path class="cls-3" d="M43.49,31h2.35v2.24H43.7v5.83H40.43V33.25H39.24V31h1.19v-.52a2.74,2.74,0,0,1,1-2.33,4,4,0,0,1,2.5-.75,4.79,4.79,0,0,1,1.2.13,2,2,0,0,1,.82.37l-.26,1.95a1.44,1.44,0,0,0-.92-.25,1.5,1.5,0,0,0-.95.25.93.93,0,0,0-.32.81Z" transform="translate(38.29 1.72)"/><path class="cls-3" d="M49.82,31h2.35v2.24H50v5.83H46.76V33.25H45.57V31h1.19v-.52a2.74,2.74,0,0,1,1-2.33,4,4,0,0,1,2.5-.75,4.85,4.85,0,0,1,1.2.13,2,2,0,0,1,.82.37L52,29.86a1.44,1.44,0,0,0-.92-.25,1.5,1.5,0,0,0-1,.25.93.93,0,0,0-.32.81Z" transform="translate(38.29 1.72)"/><path class="cls-3" d="M61.49,31v8.07H58.55l-.08-1.59a2.72,2.72,0,0,1-2.76,1.76c-1.79,0-2.68-.94-2.68-2.81V31h3.26v4.62a1.59,1.59,0,0,0,.2.91.76.76,0,0,0,.64.27,1,1,0,0,0,.81-.39,2,2,0,0,0,.29-1.16V31Z" transform="translate(38.29 1.72)"/><path class="cls-3" d="M62.75,37.16,65.58,34l.8-.79-1.22,0H62.75V31H70v1.92l-2.81,3.15-.82.82,1.37,0h2.41v2.21h-7.4Z" transform="translate(38.29 1.72)"/><path class="cls-19" d="M115.91,286.87a11.23,11.23,0,0,0-5-1.15H66.25a11.23,11.23,0,0,0-5,1.15A21.9,21.9,0,0,0,49,305.72v37.85A7.47,7.47,0,0,0,56.44,351h0a7.46,7.46,0,0,0,7.47-7.47v-29a2.15,2.15,0,0,1,2.34-2.11c3.2,0,2.25,3.64,2.25,12q0,.4,0,.78c0,.22,0,.44,0,.66v82.94a9,9,0,0,0,9,9h.18a9,9,0,0,0,9-9v-55c0-1.68.93-2.54,1.88-2.6s1.89.92,1.89,2.6v55a9,9,0,0,0,9,9h.19a9,9,0,0,0,9-9V325.91c0-.22,0-.44,0-.66a6.57,6.57,0,0,0,0-.78c0-8.38-.95-12,2.25-12a2.15,2.15,0,0,1,2.34,2.11v29a7.46,7.46,0,0,0,7.47,7.47h0a7.46,7.46,0,0,0,7.47-7.47V305.72A21.89,21.89,0,0,0,115.91,286.87Z" transform="translate(38.29 1.72)"/><path class="cls-19" d="M73.62,258.37a16.91,16.91,0,1,0,32.34,6.9c0-.34,0-.67,0-1h0c3.94-5.27.46-13.84-4-17.08s-10.44-2.93-14.95-1.78-7.12,0-6.88-1.78,2.75-2.73,2.75-2.73-8.69-3.76-13,4.51C66.42,252,71.48,256.76,73.62,258.37Z" transform="translate(38.29 1.72)"/></svg>