<svg id="Arrière-plan" xmlns="http://www.w3.org/2000/svg" viewBox="0 0 73.05 26.99"><defs><style>.cls-1{fill:#e53357;}.cls-2{font-size:5.5px;font-family:ArialMT, Arial;}.cls-2,.cls-3{fill:#fff;}</style></defs><title>btn-connection</title><rect class="cls-1" width="73.05" height="26.99" rx="13.5" ry="13.5"/><text class="cls-2" transform="translate(7.85 16.7)">C’est parti !</text><circle class="cls-3" cx="55.02" cy="10.18" r="1.57" transform="translate(-0.49 5.73) rotate(-6.09)"/><path class="cls-3" d="M62.1,10.81,57,11.88l-2.73.56-.59.13-4.9,4.21L42.87,18a1.23,1.23,0,1,0,.5,2.4l7.53-1.56a.73.73,0,0,0,.28-.13h0l.09-.08h0l5.2-4.76,6-1.25a.93.93,0,0,0-.37-1.82Z" transform="translate(0.28 -0.17)"/><path class="cls-3" d="M53.42,12.29l.11,0c-.23-.4-1.69-3-5.3-1.78s-4.08,2.27-6.94.94c0,0,.6,4.95,4.84,5.39l.62.05,1.77-.37Z" transform="translate(0.28 -0.17)"/><path class="cls-3" d="M62,16.38V26.89a13.44,13.44,0,0,0,3.78-1.41v-9.1Z" transform="translate(0.28 -0.17)"/><path class="cls-3" d="M57.89,16.38v6.77H53.13V22H49.35v1.9H46.5v3.27H59.28a13.45,13.45,0,0,0,2.39-.22V16.38Z" transform="translate(0.28 -0.17)"/></svg>