<svg id="Arrière-plan" xmlns="http://www.w3.org/2000/svg" viewBox="0 0 73.05 26.99"><defs><style>.cls-1{fill:#e53357;}.cls-2{font-size:5.5px;font-family:Arial-BoldMT, Arial;font-weight:700;}.cls-2,.cls-3{fill:#fff;}</style></defs><title>go</title><rect class="cls-1" width="73.05" height="26.99" rx="13.5" ry="13.5"/><text class="cls-2" transform="translate(8.85 15.7)">C’est parti !</text><circle class="cls-3" cx="56.8" cy="10.02" r="1.57" transform="translate(-1.25 6.08) rotate(-6.09)"/><path class="cls-3" d="M63.88,10.66l-5.12,1.06L56,12.29l-.59.12-4.91,4.21-5.89,1.23a1.23,1.23,0,1,0,.5,2.4l7.54-1.57a.85.85,0,0,0,.27-.12h0l.09-.08h0l5.2-4.76,6-1.25a.92.92,0,1,0-.38-1.81Z" transform="translate(-0.51 -0.01)"/><path class="cls-3" d="M55.21,12.13l.11,0c-.24-.4-1.7-3-5.31-1.77s-4.08,2.26-6.93.94c0,0,.6,4.94,4.84,5.38a4.21,4.21,0,0,0,.62.05l1.76-.36Z" transform="translate(-0.51 -0.01)"/></svg>